<?xml version="1.0" standalone="no"?>
<!DOCTYPE svg PUBLIC "-//W3C//DTD SVG 20010904//EN"
 "http://www.w3.org/TR/2001/REC-SVG-20010904/DTD/svg10.dtd">
<svg version="1.0" xmlns="http://www.w3.org/2000/svg"
 width="225.000000pt" height="225.000000pt" viewBox="0 0 225.000000 225.000000"
 preserveAspectRatio="xMidYMid meet">

<g transform="translate(0.000000,225.000000) scale(0.100000,-0.100000)"
fill="#000000" stroke="none">
<path d="M1023 2029 c-109 -12 -248 -57 -353 -116 -118 -66 -267 -215 -333
-333 -160 -286 -160 -624 0 -910 66 -118 215 -267 333 -333 286 -160 624 -160
910 0 118 66 267 215 333 333 160 286 160 624 0 910 -64 114 -215 266 -327
329 -177 100 -367 140 -563 120z m352 -113 c263 -89 449 -275 542 -541 26 -75
28 -90 28 -250 0 -160 -2 -175 -28 -250 -93 -265 -277 -449 -542 -542 -75 -26
-90 -28 -250 -28 -160 0 -175 2 -250 28 -266 93 -452 280 -541 542 -35 104
-45 308 -20 423 55 260 239 482 488 590 120 51 183 62 348 58 126 -2 155 -6
225 -30z"/>
<path d="M998 1910 c-311 -57 -554 -275 -640 -576 -32 -113 -32 -305 0 -418
78 -271 287 -480 558 -558 113 -32 305 -32 418 0 271 78 480 287 558 558 32
113 32 305 0 418 -77 269 -287 481 -552 556 -84 24 -265 34 -342 20z m360
-252 c3 -24 9 -27 70 -39 91 -18 122 -48 122 -117 0 -47 2 -50 32 -58 45 -13
58 -45 58 -142 0 -81 -1 -83 -27 -93 -20 -7 -33 -7 -45 0 -17 11 -18 -4 -18
-247 0 -225 -2 -261 -17 -282 -9 -14 -23 -29 -30 -33 -7 -4 -13 -20 -13 -35 0
-39 -17 -52 -70 -52 -51 0 -70 13 -70 47 l0 23 -218 0 -218 0 -9 -32 c-10 -32
-11 -33 -70 -33 l-60 0 -3 33 c-2 22 -14 43 -35 62 l-32 28 -3 346 c-2 292 -5
346 -17 346 -8 0 -19 -9 -25 -19 -8 -16 -6 -21 10 -26 17 -6 20 -15 20 -76 0
-77 -8 -87 -54 -69 l-28 10 4 95 c3 103 14 126 62 128 25 2 26 5 26 59 0 49 4
62 29 91 24 27 42 36 95 46 58 12 66 16 66 35 0 13 3 26 7 30 4 3 108 5 232 4
l226 -3 3 -27z"/>
<path d="M905 1665 c-3 -8 -7 -21 -9 -29 -3 -9 -30 -20 -67 -27 -35 -7 -73
-22 -87 -34 -23 -20 -27 -32 -30 -94 -4 -70 -5 -71 -33 -71 -44 0 -59 -31 -59
-122 0 -67 3 -79 20 -88 11 -6 25 -8 30 -5 12 7 14 125 3 125 -44 1 -32 70 12
70 l25 0 0 -335 c0 -238 3 -342 12 -360 24 -53 38 -55 413 -55 l347 0 29 29
29 29 0 355 c0 295 2 356 14 360 18 7 42 -12 50 -39 5 -16 2 -23 -14 -27 -17
-4 -20 -13 -20 -65 0 -66 8 -79 40 -62 17 9 20 21 20 88 0 91 -15 122 -61 122
-29 0 -29 1 -29 54 0 76 -24 102 -115 125 -59 14 -70 21 -75 42 l-6 24 -217 3
c-187 2 -218 0 -222 -13z m510 -130 l0 -30 -287 -3 -288 -2 0 35 0 35 288 -2
287 -3 0 -30z m75 -114 c6 -12 10 -98 10 -210 0 -222 8 -207 -125 -237 -160
-37 -536 -17 -602 31 -16 12 -18 33 -18 215 0 167 2 202 15 210 9 6 161 10
362 10 333 0 348 -1 358 -19z m-666 -467 c19 -18 19 -20 6 -45 -13 -23 -52
-25 -70 -4 -10 12 -10 21 -2 40 13 29 43 33 66 9z m666 2 c6 -8 10 -25 8 -38
-6 -42 -78 -32 -78 11 0 37 46 55 70 27z m-665 -156 c4 -6 -8 -10 -30 -10 -22
0 -34 4 -30 10 3 6 17 10 30 10 13 0 27 -4 30 -10z m385 0 c0 -6 -35 -10 -86
-10 -54 0 -83 4 -79 10 3 6 42 10 86 10 46 0 79 -4 79 -10z m268 -7 c-10 -2
-26 -2 -35 0 -10 3 -2 5 17 5 19 0 27 -2 18 -5z m-158 -28 c185 -10 143 -13
-190 -12 -227 0 -291 2 -212 7 62 4 116 10 119 14 4 4 46 5 93 2 47 -3 132 -8
190 -11z m-502 -56 c4 -19 -27 -34 -41 -20 -14 14 0 43 20 39 10 -2 19 -10 21
-19z m62 2 c0 -26 -17 -36 -35 -21 -18 15 -8 40 16 40 12 0 19 -7 19 -19z
m537 3 c3 -8 1 -20 -6 -27 -14 -14 -47 15 -37 32 10 16 36 13 43 -5z m66 2 c7
-17 -18 -40 -33 -31 -5 3 -10 15 -10 26 0 23 35 27 43 5z m-265 -28 l3 -28
-95 0 -96 0 0 30 0 31 93 -3 92 -3 3 -27z"/>
<path d="M1188 763 c7 -3 16 -2 19 1 4 3 -2 6 -13 5 -11 0 -14 -3 -6 -6z"/>
<path d="M1550 1374 c0 -20 4 -25 16 -20 9 3 20 6 25 6 6 0 5 8 -1 20 -16 29
-40 25 -40 -6z"/>
<path d="M780 600 c0 -30 1 -30 54 -30 40 0 55 4 60 16 15 38 8 44 -54 44
l-60 0 0 -30z"/>
<path d="M1362 603 c3 -27 5 -28 58 -28 53 0 55 1 58 28 3 27 3 27 -58 27 -61
0 -61 0 -58 -27z"/>
</g>
</svg>
