<?xml version="1.0" standalone="no"?>
<!DOCTYPE svg PUBLIC "-//W3C//DTD SVG 20010904//EN"
 "http://www.w3.org/TR/2001/REC-SVG-20010904/DTD/svg10.dtd">
<svg version="1.0" xmlns="http://www.w3.org/2000/svg"
 width="265.000000pt" height="190.000000pt" viewBox="0 0 265.000000 190.000000"
 preserveAspectRatio="xMidYMid meet">

<g transform="translate(0.000000,190.000000) scale(0.100000,-0.100000)"
fill="#000000" stroke="none">
<path d="M1562 1772 c-14 -4 -31 -23 -42 -47 -15 -34 -19 -36 -19 -16 -1 23
-2 24 -21 6 -17 -16 -24 -16 -44 -6 -13 7 -33 10 -45 6 -12 -4 -21 -2 -21 4 0
6 12 11 27 11 16 0 23 4 18 9 -6 5 -75 11 -155 14 -82 3 -132 2 -115 -2 17 -5
70 -9 120 -10 117 -1 102 -21 -21 -26 -49 -1 -117 -8 -152 -14 -42 -8 -68 -8
-81 -1 -11 5 -50 11 -87 12 -65 3 -97 20 -57 31 27 7 -85 -2 -230 -19 -71 -9
-137 -16 -148 -17 -10 -1 -19 -5 -19 -10 0 -5 -7 -4 -15 3 -13 11 -21 8 -45
-15 -16 -16 -33 -44 -36 -62 -3 -18 -9 -35 -13 -38 -4 -2 -35 2 -69 9 -37 7
-60 9 -59 3 1 -6 -14 -21 -33 -34 -19 -13 -39 -35 -43 -49 -5 -13 -13 -24 -18
-24 -6 0 -19 -8 -30 -19 -17 -16 -19 -29 -17 -106 3 -96 13 -113 61 -102 24 7
25 11 32 104 6 69 4 98 -4 101 -13 4 -14 41 -1 62 7 12 15 12 47 3 87 -27 113
-39 113 -53 -1 -8 -10 -69 -20 -135 -11 -66 -25 -169 -31 -230 -5 -60 -16
-117 -23 -125 -7 -8 -11 -25 -10 -37 0 -12 -5 -24 -13 -27 -8 -3 -12 -10 -9
-14 3 -5 -1 -9 -9 -9 -18 0 -19 9 -3 25 10 10 10 15 -1 21 -9 6 -11 16 -6 27
7 18 8 18 16 -1 7 -15 8 -13 3 10 -7 37 -21 47 -45 32 -17 -10 -17 -14 -3 -34
11 -17 11 -23 2 -21 -7 2 -22 18 -34 35 -11 18 -24 30 -27 26 -4 -3 -7 0 -7 7
0 8 -8 3 -20 -10 -11 -13 -20 -33 -20 -45 0 -13 -7 -25 -15 -29 -8 -3 -15 -13
-15 -23 0 -15 -2 -16 -10 -3 -8 12 -10 11 -10 -7 0 -16 -4 -21 -15 -17 -13 6
-15 -23 -14 -230 l2 -237 69 3 c37 2 68 6 68 10 0 10 -60 25 -93 23 -15 0 -24
2 -20 6 5 5 35 10 68 12 54 4 60 7 63 28 7 66 14 89 26 89 8 0 16 12 19 26 4
20 1 24 -12 18 -37 -16 -64 -17 -59 -3 3 8 15 13 28 11 18 -2 21 2 17 17 -6
25 4 40 30 44 12 1 28 9 37 16 22 19 20 -1 -4 -32 -11 -14 -20 -28 -20 -31 0
-12 38 -6 43 7 3 6 6 -14 6 -47 1 -49 5 -62 26 -82 22 -21 84 -45 110 -43 13
0 -34 21 -59 26 -11 2 -25 8 -33 14 -15 13 -18 73 -3 64 6 -4 7 -11 4 -17 -4
-6 2 -8 17 -4 24 7 24 7 4 -9 l-20 -16 20 -15 c18 -14 22 -13 39 8 l19 23 -6
-23 c-3 -12 -1 -20 4 -16 5 3 9 12 9 20 0 9 6 14 13 11 6 -2 11 -17 10 -33 -2
-27 -2 -27 7 -6 5 12 11 22 13 22 4 0 98 -41 182 -80 11 -5 35 -12 54 -16 24
-4 30 -9 20 -15 -9 -5 22 -9 79 -9 124 0 246 32 439 116 7 4 14 -8 19 -30 3
-20 10 -36 15 -36 4 0 3 14 -3 31 -9 25 -7 32 8 44 11 8 25 15 33 15 7 0 11 6
8 13 -3 8 -1 20 4 28 7 12 9 12 9 0 0 -11 4 -10 19 3 12 11 21 13 25 7 8 -13
-31 -34 -46 -25 -7 5 -8 3 -4 -5 5 -7 14 -10 22 -7 20 8 29 -15 10 -26 -24
-13 -20 -25 14 -37 23 -7 38 -6 65 5 45 18 61 44 76 124 18 97 29 105 22 18
-6 -74 -5 -78 15 -78 20 0 21 -4 16 -88 -9 -154 -17 -172 -73 -172 -14 0 -21
-6 -21 -19 0 -15 -11 -19 -67 -24 -105 -10 -161 -8 -167 6 -3 6 -4 3 -3 -8 2
-17 -3 -19 -29 -17 -17 2 -58 -4 -92 -12 -73 -19 -75 -20 -69 -2 5 12 -15 15
-116 18 -67 2 -123 2 -125 1 -8 -3 22 -49 41 -65 21 -16 21 -16 -18 -23 -22
-4 -112 -24 -200 -46 -88 -21 -174 -39 -192 -39 -18 0 -33 -4 -33 -9 0 -5 -10
-10 -23 -10 -48 -3 -104 -3 -149 0 -31 3 -49 0 -52 -8 -3 -7 -20 -10 -46 -8
-23 2 -38 0 -35 -6 4 -5 -4 -5 -19 1 -37 14 -56 3 -56 -31 l0 -29 123 0 c89 0
130 4 151 15 15 8 41 15 56 15 15 0 33 7 40 15 16 19 40 19 40 0 0 -8 5 -15
10 -15 6 0 10 5 10 10 0 11 164 8 555 -11 327 -15 874 -1 1003 27 13 3 21 1
18 -4 -7 -12 -82 -33 -154 -43 -50 -7 -47 -7 33 -5 72 2 103 8 155 31 42 18
93 30 145 35 l80 8 -82 -2 c-44 0 -79 2 -77 6 2 3 26 14 52 22 26 9 78 34 116
56 37 22 72 40 77 40 11 0 30 44 35 79 4 33 14 39 14 9 0 -37 -28 -98 -45 -98
-8 0 -15 -7 -15 -16 0 -9 5 -12 12 -8 7 4 8 3 4 -4 -4 -7 -16 -12 -27 -12 -10
0 -19 -7 -19 -15 0 -12 24 -14 143 -14 78 0 147 0 152 -1 22 -5 45 1 45 10 0
6 -15 10 -33 10 -31 0 -33 3 -34 33 0 18 -8 54 -17 80 -9 26 -16 51 -16 56 0
4 23 20 50 35 44 24 50 31 50 60 0 29 -4 34 -31 40 -17 3 -45 6 -62 6 l-30 0
28 24 c23 20 25 24 9 23 -15 -2 -20 6 -22 38 -2 22 4 56 12 75 l15 35 2 -30
c1 -16 2 -36 2 -42 -1 -8 11 -13 27 -13 l27 0 -13 57 c-7 31 -10 69 -7 85 5
25 3 28 -22 28 -21 0 -25 3 -17 13 6 7 9 24 6 38 l-5 24 11 -23 c5 -13 7 -29
4 -35 -4 -7 0 -5 9 3 10 9 14 24 11 38 -13 46 -54 17 -54 -37 -1 -30 -2 -33
-11 -18 -6 10 -8 31 -4 46 3 17 2 32 -4 36 -12 7 -15 0 -26 -49 l-6 -29 -18
34 c-10 19 -16 41 -12 49 4 8 4 49 1 90 -4 41 -7 63 -8 49 -4 -59 -15 -89 -32
-89 -9 0 -25 -9 -35 -20 -13 -14 -31 -20 -59 -20 l-42 0 4 39 c4 38 -12 169
-22 178 -3 3 -10 2 -15 -2 -8 -4 -6 -11 4 -21 21 -22 21 -126 0 -118 -12 5
-15 -2 -15 -35 l0 -40 -87 -4 -88 -3 91 -2 91 -2 10 33 c10 30 10 29 10 -21 0
-47 -3 -53 -19 -49 -15 4 -17 1 -12 -21 10 -40 16 -46 26 -28 5 9 6 21 3 26
-3 6 -1 10 6 10 7 0 9 10 7 25 -5 24 -4 25 43 24 28 -1 49 -7 49 -13 0 -6 3
-22 6 -36 4 -20 3 -22 -5 -10 -9 13 -11 13 -11 -2 0 -12 -8 -18 -23 -18 -13 0
-27 -4 -33 -9 -13 -13 -363 -191 -375 -191 -5 0 -9 29 -9 65 0 77 -13 89 -66
60 -31 -17 -33 -20 -39 -94 -3 -42 -9 -101 -13 -131 l-7 -55 -123 -18 c-68
-10 -126 -16 -129 -13 -3 3 -2 58 2 123 l7 118 59 19 c103 32 146 82 200 229
11 32 28 61 37 64 47 17 52 31 52 145 0 103 4 119 25 99 15 -14 112 -32 131
-24 13 5 15 3 9 -7 -6 -10 -2 -12 18 -8 15 3 28 1 29 -3 2 -4 23 -11 48 -14
25 -3 39 -2 33 1 -7 3 -13 12 -13 20 0 9 4 12 10 9 10 -6 9 -1 -5 40 -4 11 -9
53 -11 94 -3 41 -8 79 -11 84 -3 5 3 7 13 5 16 -3 20 -18 29 -113 6 -63 14
-109 20 -108 6 1 15 45 20 97 13 121 31 117 40 -9 7 -98 9 -105 31 -105 8 0
12 -4 9 -10 -3 -5 -1 -10 5 -10 7 0 9 7 6 16 -3 9 -6 30 -6 47 0 25 -3 28 -10
17 -7 -10 -8 6 -4 50 4 36 8 67 10 69 2 2 10 -4 18 -12 11 -10 18 -45 22 -101
4 -52 11 -83 17 -79 6 4 7 38 3 91 -5 71 -4 83 7 73 9 -7 17 -43 21 -93 4 -45
11 -87 15 -92 5 -6 11 -20 14 -31 3 -11 4 10 2 47 -2 37 -6 72 -9 77 -10 15 5
68 19 68 11 0 11 -6 -1 -29 -13 -25 -13 -31 1 -50 8 -13 15 -37 15 -55 0 -17
5 -35 10 -38 16 -10 12 -33 -7 -38 -14 -4 -13 -5 4 -6 21 -1 22 2 16 69 -4 43
-2 74 5 82 7 9 6 19 -4 32 -8 12 -14 44 -14 78 0 32 -4 58 -9 58 -5 0 -103 52
-218 116 -114 64 -253 141 -308 172 -55 30 -113 64 -130 76 -91 64 -188 89
-263 68z m-18 -92 c-6 -36 -4 -40 14 -40 16 0 23 -8 28 -34 7 -42 0 -56 -29
-56 -25 0 -41 -21 -52 -68 -3 -18 -11 -30 -16 -26 -5 3 -9 0 -9 -5 0 -6 -9
-11 -20 -11 -13 0 -20 7 -20 19 0 10 -3 39 -6 63 -6 39 -3 49 17 69 13 13 22
32 21 41 -2 10 2 18 7 18 6 0 11 -6 11 -14 0 -9 7 -12 20 -9 12 3 20 14 20 27
0 24 10 66 16 66 2 0 1 -18 -2 -40z m-1108 -5 c-8 -8 -21 -15 -28 -15 -8 1 -6
6 6 15 26 20 42 19 22 0z m698 -60 c-4 -9 0 -15 9 -15 23 0 28 -14 16 -49 -14
-40 -44 -43 -36 -3 l6 27 -12 -27 c-6 -16 -19 -28 -28 -28 -19 0 -18 3 16 98
2 6 11 12 19 12 10 0 13 -6 10 -15z m509 -5 c3 -11 1 -18 -4 -14 -5 3 -9 12
-9 20 0 20 7 17 13 -6z m-322 -22 c5 -10 7 -22 4 -27 -3 -5 1 -11 7 -13 17 -6
-45 -68 -67 -68 -9 0 -29 7 -45 15 -24 12 -30 22 -30 47 0 47 25 68 77 66 32
-1 47 -7 54 -20z m-321 -4 c0 -14 1 -14 16 0 20 21 64 21 64 0 0 -10 -7 -14
-22 -12 -15 2 -24 -3 -26 -14 -2 -13 2 -15 19 -11 16 4 20 2 17 -8 -2 -8 -17
-15 -32 -17 -22 -3 -29 1 -33 19 l-6 23 -8 -22 c-6 -17 -17 -22 -44 -22 -25 0
-35 4 -35 15 0 9 7 18 15 21 8 4 12 10 9 15 -10 16 7 29 37 29 20 0 29 -5 29
-16z m-180 -9 c12 -15 11 -16 -12 -19 -6 0 -13 -7 -16 -14 -2 -8 2 -10 13 -6
13 5 16 2 13 -12 -2 -11 -13 -20 -26 -22 -19 -3 -22 1 -22 30 0 31 14 58 31
58 4 0 12 -7 19 -15z m78 -13 c4 -28 -14 -52 -39 -52 -15 0 -19 7 -19 33 0 40
7 49 35 45 12 -2 21 -12 23 -26z m-638 -2 c0 -5 -2 -10 -4 -10 -3 0 -8 5 -11
10 -3 6 -1 10 4 10 6 0 11 -4 11 -10z m416 -12 c4 -7 3 -8 -5 -4 -6 4 -20 2
-29 -6 -15 -12 -16 -11 -3 5 16 20 27 22 37 5z m73 -27 c-11 -31 -29 -37 -37
-13 -2 7 3 12 11 12 9 0 19 9 22 21 4 11 9 19 11 16 2 -2 -1 -18 -7 -36z
m1065 -45 c3 -16 6 -45 5 -65 -1 -33 -2 -34 -9 -11 -5 17 -8 19 -9 8 -1 -14
-9 -18 -33 -17 -28 2 -29 2 -8 6 32 6 40 19 40 66 0 35 -4 39 -35 37 -3 -1
-13 7 -22 16 -16 15 -17 15 -24 -2 -6 -16 -8 -14 -8 8 l-1 27 49 -22 c39 -17
51 -28 55 -51z m-1214 57 c0 -5 -11 -8 -24 -8 -13 0 -22 3 -19 8 2 4 13 7 24
7 10 0 19 -3 19 -7z m-73 -33 c4 -12 3 -13 -5 -1 -6 8 -17 11 -26 8 -9 -4 -16
-2 -16 4 0 16 43 6 47 -11z m153 9 c0 -15 -18 -19 -23 -6 -3 8 1 14 9 14 8 0
14 -4 14 -8z m-120 -14 c-6 -8 -9 -19 -5 -25 3 -5 1 -10 -4 -10 -15 0 -14 23
1 38 17 17 23 15 8 -3z m1321 -33 c0 -9 2 -32 3 -49 3 -26 0 -33 -14 -33 -18
0 -30 36 -30 92 0 26 2 28 20 18 11 -6 20 -18 21 -28z m-1397 17 c-3 -6 0 -15
7 -20 9 -6 10 -9 2 -9 -15 0 -26 17 -18 30 3 6 8 10 11 10 3 0 2 -5 -2 -11z
m238 -21 c-6 -6 -15 -8 -19 -4 -4 4 -1 11 7 16 8 5 17 7 19 4 3 -2 -1 -10 -7
-16z m1287 -59 c4 -32 4 -33 11 -9 4 14 6 -18 4 -70 -2 -67 0 -83 5 -55 6 28
9 33 10 15 1 -14 4 -35 7 -47 5 -18 2 -23 -12 -23 -40 0 -47 15 -53 120 -3 56
-4 104 -2 106 12 12 26 -6 30 -37z m-1099 27 c0 -3 -4 -8 -10 -11 -5 -3 -10
-1 -10 4 0 6 5 11 10 11 6 0 10 -2 10 -4z m580 0 c0 -2 -18 -6 -40 -8 -22 -2
-40 0 -40 4 0 5 18 8 40 8 22 0 40 -2 40 -4z m-420 -48 c7 -18 9 -19 9 -5 1
19 5 20 39 11 16 -5 22 -14 22 -35 0 -16 -6 -29 -12 -30 -19 -1 -123 2 -124 4
-1 1 1 19 4 40 3 31 8 37 28 37 16 0 28 -8 34 -22z m1048 -94 c3 -80 0 -102
-11 -107 -7 -3 -14 0 -14 6 0 7 -3 56 -7 110 -7 92 -6 98 11 95 16 -3 18 -16
21 -104z m-898 60 c0 -14 -3 -15 -17 -3 -10 7 -20 15 -22 16 -2 2 5 3 17 3 14
0 22 -6 22 -16z m54 0 c25 -9 19 -24 -9 -24 -16 0 -25 6 -25 15 0 16 9 19 34
9z m763 -16 c-3 -8 -6 -5 -6 6 -1 11 2 17 5 13 3 -3 4 -12 1 -19z m-209 -17
c4 -23 2 -24 -35 -18 -21 4 -46 7 -55 7 -11 0 -18 8 -18 21 0 18 5 20 53 17
46 -3 52 -6 55 -27z m636 9 c6 0 12 -9 12 -20 0 -11 -4 -20 -8 -20 -4 0 -8 -5
-8 -11 0 -5 5 -7 12 -3 7 4 8 3 4 -4 -14 -23 -28 -12 -24 18 3 17 1 33 -4 36
-4 3 -8 11 -7 17 0 9 2 9 6 0 2 -7 10 -13 17 -13z m-594 -10 c0 -11 -4 -20
-10 -20 -5 0 -10 9 -10 20 0 11 5 20 10 20 6 0 10 -9 10 -20z m377 -12 c-3 -7
-5 -2 -5 12 0 14 2 19 5 13 2 -7 2 -19 0 -25z m-877 12 c0 -5 -4 -10 -10 -10
-5 0 -10 5 -10 10 0 6 5 10 10 10 6 0 10 -4 10 -10z m-940 -10 c0 -6 10 -8 24
-4 31 8 66 -11 66 -37 0 -15 -5 -18 -22 -15 -13 3 -40 8 -60 11 -32 5 -38 10
-38 30 0 16 6 25 15 25 8 0 15 -5 15 -10z m1975 -10 c19 7 24 5 29 -13 7 -29
0 -33 -24 -12 -11 10 -20 15 -20 10 0 -4 -7 -2 -15 5 -8 7 -12 17 -8 24 5 7 9
5 11 -6 3 -13 8 -15 27 -8z m-328 -37 c-3 -10 -5 -2 -5 17 0 19 2 27 5 18 2
-10 2 -26 0 -35z m90 15 c-3 -8 -6 -5 -6 6 -1 11 2 17 5 13 3 -3 4 -12 1 -19z
m-480 -35 c-3 -10 -5 -4 -5 12 0 17 2 24 5 18 2 -7 2 -21 0 -30z m53 22 c-5
-6 -5 -16 0 -25 14 -21 12 -30 -5 -30 -10 0 -15 10 -15 33 0 23 5 34 15 34 10
0 12 -4 5 -12z m-320 -15 c0 -9 5 -21 12 -28 8 -8 13 -54 14 -137 l1 -125 -34
0 -34 0 4 45 c3 25 1 45 -4 45 -5 0 -9 -17 -9 -39 l0 -38 -109 -7 -109 -8 -6
-46 -6 -47 -273 2 c-149 2 -278 3 -285 3 -7 0 -10 5 -7 11 5 7 91 9 281 5 253
-4 274 -4 274 12 0 9 3 27 6 40 6 22 6 22 -109 22 l-116 0 1 50 0 50 66 1 c74
1 161 7 178 13 6 2 16 37 24 77 7 41 17 79 22 84 6 6 7 0 4 -15 -37 -159 -36
-148 -12 -152 40 -7 55 2 58 35 3 34 3 34 81 36 26 0 46 4 46 9 -1 4 0 9 1 12
9 21 8 95 -2 101 -6 4 1 6 15 6 17 -1 27 -8 27 -17z m-917 -10 c15 0 17 -11
17 -89 l0 -89 101 -1 c56 -1 105 -4 109 -6 5 -3 10 2 14 10 8 23 28 18 21 -4
-5 -16 -2 -19 17 -16 19 4 23 0 24 -20 2 -29 -11 -33 -25 -7 -6 9 -11 12 -11
5 0 -6 5 -15 10 -18 6 -4 7 -11 4 -17 -4 -6 -2 -8 4 -4 6 3 13 2 16 -3 9 -14
-20 -21 -87 -21 l-62 1 29 23 28 24 -28 -5 -29 -4 25 15 c14 8 20 15 14 16 -5
0 -19 -7 -30 -15 -10 -8 -40 -15 -66 -15 -52 0 -48 5 -65 -90 l-9 -45 -62 -3
c-38 -2 -62 1 -62 8 0 5 20 10 45 10 29 0 45 4 45 13 0 9 3 8 9 -2 13 -20 21
0 26 61 l4 53 -14 -50 -15 -50 5 48 c4 45 3 47 -20 47 -14 0 -25 6 -25 13 0 7
-13 18 -30 24 -19 7 -30 8 -30 1 0 -13 21 -52 33 -59 14 -10 -1 -29 -18 -22
-9 3 -15 18 -15 35 0 18 -4 27 -11 23 -5 -4 -8 -19 -4 -34 5 -22 2 -27 -15
-28 -17 -2 -20 4 -19 35 1 26 3 30 6 13 4 -20 8 -16 29 29 19 42 24 68 24 137
l0 86 38 -7 c20 -3 45 -6 55 -6z m-106 -47 c-3 -10 -5 -2 -5 17 0 19 2 27 5
18 2 -10 2 -26 0 -35z m200 15 c-3 -8 -6 -5 -6 6 -1 11 2 17 5 13 3 -3 4 -12
1 -19z m617 -57 c-9 -40 -18 -70 -20 -68 -3 2 3 37 12 76 9 40 18 70 20 68 3
-2 -3 -37 -12 -76z m-651 17 c-29 -96 -31 -103 -32 -87 -1 8 6 38 15 65 9 27
17 55 20 62 2 6 6 12 8 12 3 0 -2 -24 -11 -52z m-196 -10 c-2 -13 -4 -5 -4 17
-1 22 1 32 4 23 2 -10 2 -28 0 -40z m1366 -20 l-11 -43 -1 55 c-1 41 2 51 11
42 8 -8 8 -23 1 -54z m-1149 18 c-3 -15 -8 -25 -11 -23 -2 3 -1 17 3 31 3 15
8 25 11 23 2 -3 1 -17 -3 -31z m1199 19 c-3 -9 -8 -14 -10 -11 -3 3 -2 9 2 15
9 16 15 13 8 -4z m297 5 c0 -5 -7 -7 -15 -4 -8 4 -15 8 -15 10 0 2 7 4 15 4 8
0 15 -4 15 -10z m-383 -62 c-2 -13 -4 -3 -4 22 0 25 2 35 4 23 2 -13 2 -33 0
-45z m173 -13 l0 -75 -55 0 c-39 0 -55 4 -55 13 0 29 85 137 107 137 2 0 3
-34 3 -75z m-394 -232 c-4 -9 -32 -13 -100 -13 -52 0 -97 3 -99 8 -3 4 38 6
92 4 l96 -3 1 63 c1 35 3 104 5 153 3 75 4 66 6 -55 2 -79 1 -150 -1 -157z
m704 252 c0 -8 -9 -10 -25 -7 -20 3 -23 7 -14 18 12 15 39 8 39 -11z m-1823
-57 c-2 -13 -4 -3 -4 22 0 25 2 35 4 23 2 -13 2 -33 0 -45z m34 5 c-9 -16 -10
-15 -11 8 0 14 3 29 8 33 12 12 14 -22 3 -41z m176 15 c-3 -7 -5 -2 -5 12 0
14 2 19 5 13 2 -7 2 -19 0 -25z m1130 -40 c-3 -7 -5 -2 -5 12 0 14 2 19 5 13
2 -7 2 -19 0 -25z m36 12 c-3 -11 -7 -20 -9 -20 -2 0 -4 9 -4 20 0 11 4 20 9
20 5 0 7 -9 4 -20z m-833 -34 c0 -8 -9 -17 -19 -21 -11 -3 -22 -14 -24 -23 -3
-9 -5 -3 -6 14 0 17 2 34 6 37 12 13 43 7 43 -7z m924 -12 c43 -6 46 -9 46
-36 0 -26 -7 -32 -72 -63 -94 -45 -108 -45 -99 -2 13 55 42 107 61 107 9 0 38
-3 64 -6z m-1689 -34 c-3 -5 -10 -10 -16 -10 -5 0 -9 5 -9 10 0 6 7 10 16 10
8 0 12 -4 9 -10z m470 -10 c3 -5 1 -10 -4 -10 -6 0 -11 5 -11 10 0 6 2 10 4
10 3 0 8 -4 11 -10z m562 -57 c-3 -10 -5 -4 -5 12 0 17 2 24 5 18 2 -7 2 -21
0 -30z m-10 -45 c-3 -8 -6 -5 -6 6 -1 11 2 17 5 13 3 -3 4 -12 1 -19z m226 15
c-7 -2 -19 -2 -25 0 -7 3 -2 5 12 5 14 0 19 -2 13 -5z m-1023 -12 c0 -5 -18
-11 -40 -13 -38 -3 -54 5 -27 15 21 9 67 7 67 -2z m900 -1 c0 -5 -4 -10 -9
-10 -6 0 -13 5 -16 10 -3 6 1 10 9 10 9 0 16 -4 16 -10z m1165 -10 c-3 -5 -11
-10 -16 -10 -6 0 -7 5 -4 10 3 6 11 10 16 10 6 0 7 -4 4 -10z m-1905 -20 c0
-5 -2 -10 -4 -10 -3 0 -8 5 -11 10 -3 6 -1 10 4 10 6 0 11 -4 11 -10z m370
-10 c0 -14 -11 -17 -75 -18 -65 0 -75 2 -75 18 0 15 10 18 75 17 64 0 75 -3
75 -17z m-819 -10 c5 0 9 -4 9 -10 0 -6 -9 -6 -22 -1 -13 4 -30 6 -38 4 -13
-4 -13 -3 0 6 8 6 21 9 28 6 8 -3 18 -5 23 -5z m1449 -28 c0 -23 -5 -28 -27
-30 -33 -3 -44 -12 -13 -12 18 0 20 -3 11 -13 -6 -8 -8 -17 -5 -20 10 -10 -32
-23 -114 -37 -68 -11 -73 -14 -86 -45 -8 -18 -25 -41 -38 -49 -34 -22 -227
-90 -331 -116 -80 -19 -95 -20 -160 -10 -68 12 -223 67 -307 110 -44 23 -70
55 -70 86 0 18 -8 24 -39 29 -58 10 -76 26 -62 54 12 21 10 22 -24 19 -23 -1
-40 3 -45 12 -6 8 -10 10 -10 4 0 -7 -27 -12 -72 -12 l-73 -2 49 26 49 26 53
-21 54 -20 0 21 c0 18 3 20 33 12 43 -11 1114 -7 1152 5 57 18 75 14 75 -17z
m892 -117 c-4 -41 -6 -45 -31 -44 -14 0 -20 3 -13 6 6 2 12 14 12 26 0 37 11
66 24 61 7 -3 10 -21 8 -49z m-2372 10 c-7 -9 -15 -13 -17 -11 -7 7 7 26 19
26 6 0 6 -6 -2 -15z m126 2 c4 -4 -5 -7 -19 -7 -15 0 -26 -3 -25 -7 2 -5 -1
-9 -7 -9 -5 -1 -9 2 -7 8 1 6 -9 7 -28 3 -33 -7 -41 2 -11 13 25 9 88 9 97 -1z
m1299 -25 c-3 -3 -11 0 -18 7 -9 10 -8 11 6 5 10 -3 15 -9 12 -12z m881 -9
c-10 -10 -19 5 -10 18 6 11 8 11 12 0 2 -7 1 -15 -2 -18z m158 0 c-5 -5 -12
-12 -16 -18 -4 -6 -8 -2 -8 8 0 9 7 17 17 17 9 0 12 -3 7 -7z m-2431 -34 c7
-1 21 -1 32 0 17 2 16 0 -5 -12 -32 -17 -60 -3 -52 27 5 18 7 18 10 4 2 -10 9
-19 15 -19z m307 1 c0 -5 -2 -10 -4 -10 -3 0 -8 5 -11 10 -3 6 -1 10 4 10 6 0
11 -4 11 -10z m1025 -10 c19 -8 19 -9 -2 -9 -12 -1 -25 4 -28 9 -7 12 2 12 30
0z m35 -37 c0 -6 -4 -15 -10 -18 -5 -3 -10 -1 -10 4 0 6 -5 11 -11 11 -5 0 -8
-4 -5 -9 3 -5 -1 -14 -10 -21 -12 -10 -17 -11 -27 -1 -9 10 -8 11 8 5 16 -6
18 -5 8 7 -15 15 -17 33 -4 24 5 -3 12 -2 15 3 7 12 46 9 46 -5z m-1400 -65
c0 -6 -7 -5 -15 2 -8 7 -15 17 -15 22 0 6 7 5 15 -2 8 -7 15 -17 15 -22z
m2319 -77 c1 9 8 19 16 23 17 6 21 -9 5 -19 -6 -4 -8 -11 -4 -16 3 -6 0 -25
-7 -42 l-14 -32 -6 30 c-4 17 -7 44 -7 60 0 29 0 29 8 5 5 -15 8 -18 9 -9z
m176 -251 c3 -14 -6 -18 -53 -23 -64 -7 -72 -1 -72 54 0 30 5 38 38 57 l37 21
23 -46 c13 -25 25 -53 27 -63z m-1140 90 c3 -6 -1 -7 -9 -4 -18 7 -21 14 -7
14 6 0 13 -4 16 -10z m-465 -85 c0 -14 -2 -25 -4 -25 -2 0 -6 11 -8 25 -3 14
-1 25 3 25 5 0 9 -11 9 -25z m50 -8 c0 -8 -3 -17 -7 -20 -9 -9 -34 13 -27 24
8 14 34 11 34 -4z m47 -12 c1 -16 1 -16 -3 -2 -3 9 -9 17 -14 17 -5 0 -11 -8
-13 -17 -3 -13 -5 -12 -6 5 -1 30 33 27 36 -3z m39 5 c0 -11 -3 -20 -7 -20 -4
0 -9 9 -12 20 -3 12 0 20 7 20 6 0 12 -9 12 -20z m54 0 c0 -11 -7 -20 -15 -20
-15 0 -21 21 -8 33 12 13 23 7 23 -13z"/>
<path d="M1540 1585 c0 -9 6 -12 15 -9 8 4 15 10 15 15 0 5 -7 9 -15 9 -8 0
-15 -7 -15 -15z"/>
<path d="M1298 1565 c-2 -19 0 -35 4 -35 4 0 8 16 8 35 0 19 -2 35 -4 35 -2 0
-6 -16 -8 -35z"/>
<path d="M1230 1576 c0 -9 30 -14 35 -6 4 6 -3 10 -14 10 -12 0 -21 -2 -21 -4z"/>
<path d="M1228 1528 c9 -9 15 -9 24 0 9 9 7 12 -12 12 -19 0 -21 -3 -12 -12z"/>
<path d="M1373 1085 c0 -22 2 -30 4 -17 2 12 2 30 0 40 -3 9 -5 -1 -4 -23z"/>
<path d="M986 1002 c-2 -4 -1 -14 5 -22 7 -12 9 -10 9 8 0 23 -5 28 -14 14z"/>
<path d="M1104 980 c0 -11 3 -20 7 -20 4 0 9 9 12 20 3 12 0 20 -7 20 -6 0
-12 -9 -12 -20z"/>
<path d="M1141 984 c0 -11 3 -14 6 -6 3 7 2 16 -1 19 -3 4 -6 -2 -5 -13z"/>
<path d="M1180 990 c0 -6 5 -8 10 -5 6 3 10 2 10 -4 0 -5 -5 -12 -10 -14 -6
-3 -5 -4 2 -3 17 3 17 28 1 34 -7 2 -13 -1 -13 -8z"/>
<path d="M1220 980 c0 -11 4 -20 8 -20 4 0 8 9 9 20 1 11 -2 20 -8 20 -5 0 -9
-9 -9 -20z"/>
<path d="M1020 973 c0 -8 5 -13 12 -11 18 6 21 25 3 25 -8 0 -15 -7 -15 -14z"/>
<path d="M1060 977 c0 -8 6 -14 14 -14 8 0 12 6 9 14 -3 7 -9 13 -14 13 -5 0
-9 -6 -9 -13z"/>
<path d="M460 1115 c0 -8 5 -15 10 -15 6 0 10 7 10 15 0 8 -4 15 -10 15 -5 0
-10 -7 -10 -15z"/>
<path d="M478 1043 c7 -3 16 -2 19 1 4 3 -2 6 -13 5 -11 0 -14 -3 -6 -6z"/>
<path d="M735 999 c-4 -6 -3 -15 3 -21 6 -6 11 -4 15 6 7 18 -9 31 -18 15z"/>
<path d="M1145 760 c-3 -6 1 -7 9 -4 18 7 21 14 7 14 -6 0 -13 -4 -16 -10z"/>
<path d="M1108 723 c6 -2 10 -9 6 -14 -3 -5 0 -9 5 -9 6 0 11 7 11 15 0 8 -8
15 -17 14 -11 0 -13 -3 -5 -6z"/>
<path d="M1180 719 c0 -6 -9 -9 -20 -6 -11 3 -20 1 -20 -4 0 -5 15 -9 33 -9
18 0 38 -5 45 -12 7 -7 12 -10 12 -7 0 3 -11 15 -25 27 -14 12 -25 17 -25 11z"/>
<path d="M440 666 c0 -27 49 -73 97 -90 26 -9 56 -21 65 -27 10 -5 25 -9 33
-9 9 0 45 -13 82 -30 36 -16 76 -30 88 -30 33 0 250 67 321 100 62 28 90 59
80 86 -8 21 -766 21 -766 0z m425 -27 l26 -32 87 12 c48 7 104 15 125 18 23 3
37 2 37 -5 0 -11 -18 -17 -150 -47 -107 -24 -103 -22 -122 -55 -14 -25 -23
-30 -57 -30 -33 0 -44 6 -64 32 -20 25 -42 36 -118 58 -115 34 -129 39 -129
52 0 5 8 7 18 4 9 -3 59 -13 110 -21 l93 -16 28 30 c39 42 80 42 116 0z"/>
<path d="M751 619 c-17 -28 -18 -69 -1 -69 13 0 41 37 50 66 l8 29 1 -30 c1
-23 9 -35 31 -48 l30 -18 0 34 c0 42 -26 67 -68 67 -25 0 -36 -7 -51 -31z"/>
<path d="M771 553 c-23 -15 -23 -17 -6 -30 24 -17 56 -17 80 1 18 13 17 14
-13 30 -38 19 -33 19 -61 -1z"/>
<path d="M1187 595 c-15 -14 -24 -25 -19 -25 5 0 19 11 32 25 30 32 23 32 -13
0z"/>
<path d="M955 160 c3 -5 8 -10 11 -10 2 0 4 5 4 10 0 6 -5 10 -11 10 -5 0 -7
-4 -4 -10z"/>
<path d="M900 1750 c0 -13 70 -13 90 0 11 7 0 10 -37 10 -29 0 -53 -4 -53 -10z"/>
<path d="M2260 1142 c-5 -65 -3 -72 14 -72 15 0 16 3 6 15 -10 12 -10 18 0 30
8 9 9 15 2 15 -6 0 -12 19 -14 43 -3 32 -5 25 -8 -31z"/>
<path d="M2220 1100 c0 -22 15 -27 26 -8 5 7 3 8 -6 3 -10 -6 -12 -4 -7 8 3
10 2 17 -3 17 -6 0 -10 -9 -10 -20z"/>
<path d="M2402 1065 c0 -16 2 -22 5 -12 2 9 2 23 0 30 -3 6 -5 -1 -5 -18z"/>
<path d="M216 1064 c-8 -21 -8 -21 10 -28 8 -3 13 -2 9 3 -3 5 0 11 7 13 6 2
8 10 4 16 -10 17 -23 15 -30 -4z"/>
<path d="M1986 1044 c-9 -22 -6 -95 4 -119 5 -11 9 -15 9 -8 1 8 10 9 31 3 33
-10 36 -4 18 35 -11 24 -13 25 -19 8 -5 -13 -9 -6 -15 27 -6 36 -9 41 -16 25
-6 -15 -7 -11 -3 13 5 34 1 42 -9 16z m24 -73 c0 -6 -4 -13 -10 -16 -5 -3 -10
1 -10 9 0 9 5 16 10 16 6 0 10 -4 10 -9z"/>
<path d="M2348 1053 c7 -3 16 -2 19 1 4 3 -2 6 -13 5 -11 0 -14 -3 -6 -6z"/>
<path d="M2199 1025 c-1 -16 0 -40 0 -52 1 -11 -3 -24 -8 -28 -11 -6 -15 7
-12 33 1 6 -2 12 -8 12 -5 0 -12 -6 -14 -12 -3 -7 -6 1 -6 19 -2 64 -16 39
-17 -28 0 -38 3 -64 7 -58 4 8 8 7 13 -2 5 -12 7 -12 12 0 5 11 8 11 15 0 7
-12 9 -12 9 0 0 11 3 11 15 1 12 -10 14 -3 13 53 -1 68 -17 118 -19 62z"/>
<path d="M256 1023 c-6 -14 -5 -15 5 -6 7 7 10 15 7 18 -3 3 -9 -2 -12 -12z"/>
<path d="M2105 1031 c-3 -5 -1 -12 5 -16 5 -3 10 1 10 9 0 18 -6 21 -15 7z"/>
<path d="M2161 1024 c0 -11 3 -14 6 -6 3 7 2 16 -1 19 -3 4 -6 -2 -5 -13z"/>
<path d="M2181 1014 c0 -11 3 -14 6 -6 3 7 2 16 -1 19 -3 4 -6 -2 -5 -13z"/>
<path d="M2026 1003 c-6 -14 -5 -15 5 -6 7 7 10 15 7 18 -3 3 -9 -2 -12 -12z"/>
<path d="M2051 984 c0 -11 3 -14 6 -6 3 7 2 16 -1 19 -3 4 -6 -2 -5 -13z"/>
<path d="M2120 972 c0 -12 -4 -22 -10 -22 -5 0 -10 -9 -10 -20 0 -11 4 -20 10
-20 11 0 25 68 16 77 -3 4 -6 -3 -6 -15z"/>
<path d="M2081 967 c0 -10 -5 -15 -11 -12 -5 3 -10 1 -10 -4 0 -6 4 -11 8 -11
5 0 8 -21 6 -47 l-3 -48 10 45 c5 25 8 56 6 70 -2 14 -5 17 -6 7z"/>
<path d="M2250 961 c0 -12 5 -21 10 -21 6 0 10 6 10 14 0 8 -4 18 -10 21 -5 3
-10 -3 -10 -14z"/>
<path d="M2334 965 c17 -13 18 -15 3 -15 -14 0 -17 -10 -16 -57 1 -51 2 -54 9
-25 8 34 20 54 20 34 0 -7 11 -12 24 -12 21 0 24 5 24 38 0 42 -10 52 -53 52
-29 -1 -29 -1 -11 -15z"/>
<path d="M1 924 c0 -11 3 -14 6 -6 3 7 2 16 -1 19 -3 4 -6 -2 -5 -13z"/>
<path d="M2520 895 c-8 -45 -8 -47 2 -37 5 5 8 18 5 28 -3 11 -6 15 -7 9z"/>
<path d="M2536 865 c-11 -30 -6 -40 11 -22 12 12 14 20 6 28 -7 7 -12 6 -17
-6z"/>
<path d="M1885 834 c45 -7 183 -9 178 -2 -2 5 -48 7 -101 7 -53 -1 -88 -3 -77
-5z"/>
<path d="M1290 538 c0 -19 35 -42 53 -34 7 2 5 5 -5 5 -9 1 -24 11 -32 23 -13
18 -16 19 -16 6z"/>
<path d="M270 461 l0 -69 82 -4 81 -3 14 32 c7 18 13 36 13 41 0 5 -26 15 -57
22 -32 7 -75 21 -95 31 l-38 19 0 -69z m144 -37 c23 -9 20 -23 -4 -17 -11 3
-20 9 -20 14 0 11 3 11 24 3z m-54 -8 c0 -3 -4 -8 -10 -11 -5 -3 -10 -1 -10 4
0 6 5 11 10 11 6 0 10 -2 10 -4z"/>
<path d="M1390 499 c-14 -6 -70 -19 -124 -30 -55 -11 -102 -21 -104 -23 -6 -7
28 -67 41 -71 7 -2 58 -6 113 -10 l101 -6 7 61 c4 34 10 68 13 76 6 16 -11 17
-47 3z m-109 -88 c16 -1 23 -31 7 -31 -4 0 -8 4 -8 9 0 13 -49 20 -54 7 -2 -6
-5 -3 -5 6 -1 13 5 17 22 14 12 -3 29 -5 38 -5z m59 5 c0 -3 -4 -8 -10 -11 -5
-3 -10 -1 -10 4 0 6 5 11 10 11 6 0 10 -2 10 -4z m25 -6 c3 -5 1 -10 -4 -10
-6 0 -11 5 -11 10 0 6 2 10 4 10 3 0 8 -4 11 -10z m35 -10 c0 -5 -5 -10 -11
-10 -5 0 -7 5 -4 10 3 6 8 10 11 10 2 0 4 -4 4 -10z"/>
<path d="M1288 493 c7 -3 16 -2 19 1 4 3 -2 6 -13 5 -11 0 -14 -3 -6 -6z"/>
<path d="M203 463 c9 -2 23 -2 30 0 6 3 -1 5 -18 5 -16 0 -22 -2 -12 -5z"/>
<path d="M160 438 c0 -4 14 -8 30 -8 17 0 30 2 30 4 0 2 -13 6 -30 8 -16 3
-30 1 -30 -4z"/>
<path d="M1130 444 c0 -6 7 -19 16 -30 14 -18 14 -18 3 6 -14 31 -19 36 -19
24z"/>
<path d="M234 409 c4 -13 10 -31 13 -41 3 -10 -2 -18 -14 -21 -14 -4 -13 -5 5
-6 21 -1 23 3 20 41 -2 24 -9 43 -17 46 -11 4 -12 -1 -7 -19z"/>
<path d="M560 401 c0 -12 6 -21 16 -21 8 0 12 5 9 10 -3 6 -2 10 4 10 5 0 12
-6 15 -12 3 -7 5 -4 3 7 -3 29 -47 34 -47 6z"/>
<path d="M1015 400 c-10 -16 4 -30 31 -30 17 0 24 5 24 20 0 15 -7 20 -24 20
-14 0 -28 -4 -31 -10z m35 -10 c0 -5 -4 -10 -10 -10 -5 0 -10 5 -10 10 0 6 5
10 10 10 6 0 10 -4 10 -10z"/>
<path d="M754 355 c1 -27 16 -35 16 -9 0 14 3 14 15 4 12 -10 15 -9 15 4 0 10
-4 15 -9 11 -5 -3 -12 -1 -16 5 -11 18 -23 10 -21 -15z"/>
<path d="M721 354 c0 -11 3 -14 6 -6 3 7 2 16 -1 19 -3 4 -6 -2 -5 -13z"/>
<path d="M906 359 c4 -8 -1 -9 -17 -5 -20 6 -21 5 -6 -4 18 -11 37 -6 37 11 0
5 -5 9 -11 9 -5 0 -7 -5 -3 -11z"/>
<path d="M1176 357 c3 -10 9 -15 12 -12 3 3 0 11 -7 18 -10 9 -11 8 -5 -6z"/>
<path d="M281 336 c-29 -35 2 -43 189 -48 99 -3 153 -2 125 2 -27 5 -78 9
-112 9 -35 1 -63 5 -63 11 0 6 -26 10 -59 10 -47 0 -60 3 -63 17 -3 15 -4 15
-17 -1z"/>
<path d="M835 340 c-16 -7 -17 -9 -3 -9 9 -1 20 4 23 9 7 11 7 11 -20 0z"/>
<path d="M1200 321 c0 -5 16 -8 35 -8 19 1 35 5 35 9 0 4 -16 8 -35 8 -19 0
-35 -4 -35 -9z"/>
<path d="M1288 313 c7 -3 16 -2 19 1 4 3 -2 6 -13 5 -11 0 -14 -3 -6 -6z"/>
<path d="M208 303 c7 -3 16 -2 19 1 4 3 -2 6 -13 5 -11 0 -14 -3 -6 -6z"/>
<path d="M738 273 c7 -3 16 -2 19 1 4 3 -2 6 -13 5 -11 0 -14 -3 -6 -6z"/>
<path d="M43 93 c9 -2 23 -2 30 0 6 3 -1 5 -18 5 -16 0 -22 -2 -12 -5z"/>
<path d="M90 90 c0 -5 5 -10 10 -10 6 0 10 5 10 10 0 6 -4 10 -10 10 -5 0 -10
-4 -10 -10z"/>
<path d="M298 3 c7 -3 16 -2 19 1 4 3 -2 6 -13 5 -11 0 -14 -3 -6 -6z"/>
</g>
</svg>
