<?xml version="1.0" standalone="no"?>
<!DOCTYPE svg PUBLIC "-//W3C//DTD SVG 20010904//EN"
 "http://www.w3.org/TR/2001/REC-SVG-20010904/DTD/svg10.dtd">
<svg version="1.0" xmlns="http://www.w3.org/2000/svg"
 width="271.000000pt" height="186.000000pt" viewBox="0 0 271.000000 186.000000"
 preserveAspectRatio="xMidYMid meet">

<g transform="translate(0.000000,186.000000) scale(0.100000,-0.100000)"
fill="#000000" stroke="none">
<path d="M0 1375 c0 -348 3 -485 11 -485 6 0 24 11 41 25 16 14 39 25 51 25
21 1 21 1 -2 14 -22 12 -5 14 138 15 218 2 251 11 160 48 -21 8 -39 19 -39 24
0 5 -7 9 -15 9 -8 0 -12 -6 -9 -14 3 -8 -7 -18 -25 -26 -32 -13 -67 -7 -56 10
3 5 1 10 -4 10 -6 0 -11 -4 -11 -10 0 -22 -25 -8 -26 15 -1 15 3 25 12 25 8 0
14 7 14 15 0 12 7 14 28 9 15 -4 32 -11 39 -16 7 -5 12 -5 15 2 2 6 27 10 58
9 30 0 78 -1 105 0 35 1 45 -2 35 -9 -16 -10 -15 -11 20 -27 23 -11 22 -12
-20 -12 -25 0 -63 4 -85 9 -46 10 -56 7 -25 -10 22 -12 93 -21 165 -21 22 -1
43 -5 46 -11 9 -13 29 -1 29 17 0 10 11 13 40 12 42 -3 48 1 28 21 -7 7 -8 12
-3 12 5 0 0 7 -11 16 -18 15 -18 15 5 8 17 -4 21 -3 16 6 -8 13 14 32 27 24
12 -8 9 -44 -4 -44 -6 0 -8 -3 -5 -6 4 -4 13 -1 21 5 18 15 58 11 64 -7 2 -8
-2 -10 -14 -5 -11 4 -15 3 -11 -4 5 -7 -1 -9 -15 -5 -20 5 -21 3 -10 -10 10
-13 10 -17 0 -21 -7 -3 -1 -6 15 -6 15 -1 27 3 27 8 0 4 10 6 23 4 14 -3 29 2
36 11 10 12 10 16 1 16 -13 0 -49 40 -49 55 0 6 11 -2 24 -17 13 -16 33 -28
45 -28 24 0 25 8 3 39 -16 24 -16 24 7 18 16 -4 31 0 42 10 10 9 18 12 18 7 0
-5 -9 -16 -20 -24 -26 -18 -25 -36 0 -50 11 -6 20 -7 19 -3 -7 40 26 67 47 38
7 -9 15 -16 18 -16 3 1 5 -2 4 -6 -2 -5 -5 -7 -8 -7 -3 1 -15 5 -27 9 -13 3
-23 3 -23 -2 0 -9 69 -33 94 -33 8 0 17 7 20 16 4 9 13 14 22 10 8 -3 12 -2 9
4 -3 6 1 10 9 10 8 0 18 5 22 11 5 8 -1 10 -18 7 -21 -4 -24 -2 -20 15 4 15 2
18 -8 12 -8 -5 -11 -4 -6 3 7 12 36 5 36 -8 0 -16 44 -18 71 -4 31 15 53 19
29 4 -11 -7 -8 -11 15 -20 23 -9 26 -13 15 -21 -8 -5 -28 -6 -45 -3 -23 4 -26
3 -15 -5 8 -6 29 -11 45 -12 29 -1 29 -1 -5 -8 -20 -4 -42 -11 -49 -15 -7 -5
-59 -10 -114 -11 -56 -1 -115 -8 -132 -15 -16 -6 -73 -13 -126 -14 -53 -2
-102 -7 -108 -11 -7 -4 -51 -9 -98 -11 -82 -3 -118 -15 -110 -38 2 -6 15 -11
28 -11 13 0 23 -5 22 -11 -2 -8 17 -10 60 -7 85 7 69 -4 -23 -15 -101 -13
-104 -14 -112 -37 -5 -18 -6 -18 -7 4 -1 23 -2 24 -68 17 -46 -5 -72 -12 -82
-24 -10 -12 -15 -14 -18 -4 -6 15 -93 16 -127 1 -18 -9 -26 -22 -31 -56 -3
-25 -4 -47 -2 -50 3 -2 19 -5 36 -5 35 -1 35 -2 16 -83 -8 -33 -14 -71 -14
-85 1 -22 14 29 35 138 6 30 9 32 46 32 l40 0 -7 -47 c-3 -27 -9 -59 -12 -73
-4 -19 -3 -22 6 -14 7 7 13 44 14 88 l2 76 77 0 c52 0 78 4 81 13 3 7 6 5 6
-5 1 -15 -8 -18 -61 -18 -99 0 -62 -8 50 -11 l102 -3 -5 -35 c-4 -27 -3 -31 4
-16 5 11 10 30 10 43 1 18 7 22 32 22 21 0 28 -4 23 -12 -6 -9 -3 -9 9 0 15
13 16 8 14 -51 -1 -36 1 -60 5 -54 4 7 8 37 8 67 0 40 3 51 10 40 7 -11 12
-12 18 -3 5 8 144 18 467 32 534 24 730 27 800 12 63 -14 196 -71 190 -81 -3
-5 3 -6 13 -3 10 2 24 -3 31 -11 8 -9 18 -16 23 -16 6 0 37 -16 69 -36 56 -35
76 -64 44 -64 -9 0 -15 -9 -15 -25 0 -15 -6 -25 -14 -25 -7 0 -19 -7 -26 -15
-9 -10 -9 -15 -1 -15 26 0 51 -40 52 -82 0 -33 2 -38 9 -23 6 13 9 15 9 5 1
-8 4 -25 7 -37 5 -19 2 -23 -17 -24 -22 0 -23 -1 -4 -9 11 -5 24 -9 29 -9 5
-1 6 57 2 139 -6 139 -6 141 14 130 11 -6 20 -15 20 -21 0 -6 9 -8 20 -4 11 3
36 1 56 -7 30 -10 36 -10 44 2 5 8 7 25 3 37 -3 13 -1 23 3 23 5 0 10 19 12
43 1 24 -1 37 -6 29 -9 -14 -44 34 -76 106 -11 23 -23 42 -28 42 -5 0 -8 17
-7 39 2 26 -3 44 -15 56 -27 28 -14 40 45 41 30 1 39 -1 22 -3 -29 -4 -48 -23
-23 -23 5 0 7 -6 5 -13 -4 -8 15 -19 52 -32 54 -19 58 -22 68 -62 8 -33 13
-40 24 -34 10 6 14 28 14 73 l-1 63 9 -55 c6 -30 8 -63 5 -72 -2 -10 1 -18 7
-18 7 0 5 -5 -3 -10 -13 -9 -13 -10 0 -10 13 0 13 -1 0 -10 -10 -7 -11 -10 -2
-10 7 0 0 -13 -15 -30 -18 -21 -32 -28 -45 -24 -14 4 -18 0 -18 -20 0 -20 5
-26 21 -26 11 0 30 -5 41 -11 11 -6 18 -7 15 -2 -3 5 -2 15 3 23 7 11 11 10
24 -3 9 -9 16 -20 15 -24 -3 -20 2 -34 11 -28 5 3 7 12 3 20 -3 9 1 15 11 15
15 0 16 56 16 605 l0 605 -1355 0 -1355 0 0 -485z m973 -72 c-7 -2 -19 -2 -25
0 -7 3 -2 5 12 5 14 0 19 -2 13 -5z m-59 -19 c4 -10 -3 -14 -24 -14 -27 0 -38
9 -25 21 10 11 44 6 49 -7z m180 -5 c-8 -14 -34 -10 -34 5 0 9 7 12 20 9 11
-3 17 -9 14 -14z m-231 -43 c7 -18 -1 -26 -25 -26 -11 0 -17 -4 -14 -9 3 -4
-4 -17 -16 -27 -12 -11 -19 -14 -15 -8 8 13 -68 38 -84 28 -6 -4 -15 -1 -19 6
-9 15 15 44 29 36 5 -4 32 -8 60 -10 40 -4 51 -1 51 10 0 18 26 18 33 0z m77
0 c0 -3 -4 -8 -10 -11 -5 -3 -10 -1 -10 4 0 6 5 11 10 11 6 0 10 -2 10 -4z
m147 -15 c-10 -4 -18 -11 -17 -16 1 -5 -3 -11 -9 -13 -6 -2 -11 0 -11 5 0 15
23 33 40 32 11 0 11 -2 -3 -8z m198 -1 c-3 -5 -11 -10 -16 -10 -6 0 -7 5 -4
10 3 6 11 10 16 10 6 0 7 -4 4 -10z m393 3 c-10 -2 -26 -2 -35 0 -10 3 -2 5
17 5 19 0 27 -2 18 -5z m-1089 -17 c6 -8 25 -19 41 -26 33 -14 42 -35 10 -25
-14 5 -20 2 -20 -9 0 -9 8 -16 18 -17 14 0 14 -2 -3 -9 -19 -8 -19 -9 3 -9 13
-1 20 -5 17 -11 -7 -11 -115 -9 -115 3 0 10 -44 9 -73 -2 -25 -10 -147 -3
-147 8 0 4 41 12 92 19 51 7 95 18 99 25 10 18 53 66 60 66 4 1 12 -5 18 -13z
m751 10 c0 -3 -4 -8 -10 -11 -5 -3 -10 -1 -10 4 0 6 5 11 10 11 6 0 10 -2 10
-4z m128 -16 c27 0 1 -17 -28 -18 -21 0 -30 4 -30 15 0 11 6 14 23 9 12 -3 28
-6 35 -6z m-246 -22 c-5 -5 -20 -8 -33 -6 l-24 5 25 10 c28 12 47 6 32 -9z
m268 -18 c0 -5 -7 -10 -15 -10 -8 0 -15 5 -15 10 0 6 7 10 15 10 8 0 15 -4 15
-10z m374 -6 c21 -20 20 -23 -6 -45 -22 -20 -48 -25 -48 -10 0 10 -74 22 -135
21 -24 0 -44 -6 -51 -15 -7 -9 -35 -18 -65 -22 -30 -3 -62 -12 -71 -20 -12
-11 -21 -12 -37 -4 -11 6 -30 11 -43 12 -23 1 -23 1 2 9 l25 7 -28 12 c-16 6
-35 11 -43 11 -8 0 -14 4 -14 10 0 5 -12 16 -27 24 -26 14 -27 15 -5 16 12 0
22 -4 22 -10 0 -5 15 -10 33 -9 38 1 89 -11 139 -35 21 -10 43 -16 50 -13 7 3
3 6 -10 6 -21 1 -22 3 -8 16 16 17 51 21 41 5 -3 -5 1 -10 10 -10 13 0 16 6
11 25 -6 24 -5 25 21 19 16 -4 32 -9 36 -11 5 -3 31 -7 60 -9 53 -3 90 12 65
27 -8 6 1 9 24 9 20 0 44 -7 52 -16z m-644 -4 c0 -5 -7 -10 -16 -10 -8 0 -12
5 -9 10 3 6 10 10 16 10 5 0 9 -4 9 -10z m65 -8 c-3 -3 -11 0 -18 7 -9 10 -8
11 6 5 10 -3 15 -9 12 -12z m245 8 c0 -5 -5 -10 -11 -10 -5 0 -7 5 -4 10 3 6
8 10 11 10 2 0 4 -4 4 -10z m-620 -16 c0 -2 -7 -4 -15 -4 -8 0 -15 4 -15 10 0
5 7 7 15 4 8 -4 15 -8 15 -10z m173 10 c3 -4 -5 -16 -19 -27 -24 -19 -27 -19
-42 -3 -14 15 -14 17 -2 16 8 -1 24 -2 35 -1 17 1 18 3 5 11 -13 8 -13 10 1
10 9 0 19 -3 22 -6z m-376 -10 c-3 -3 -12 -4 -19 -1 -8 3 -5 6 6 6 11 1 17 -2
13 -5z m163 -4 c0 -5 -4 -10 -10 -10 -5 0 -10 5 -10 10 0 6 5 10 10 10 6 0 10
-4 10 -10z m1390 -10 c0 -5 8 -10 19 -10 10 0 24 -6 31 -14 6 -8 21 -16 33
-18 12 -2 21 -9 20 -15 -2 -8 4 -10 13 -6 14 5 15 3 5 -15 -12 -22 -31 -30
-31 -12 0 5 -18 14 -40 20 -28 8 -44 19 -55 40 -18 34 -18 40 -5 40 6 0 10 -4
10 -10z m-939 -22 c19 -6 40 -18 47 -25 11 -11 6 -13 -30 -12 -40 1 -41 2 -13
9 l30 8 -31 1 c-18 0 -34 7 -38 16 -7 18 -7 18 35 3z m-720 -38 c6 0 7 -4 4
-10 -3 -5 -13 -10 -21 -10 -8 0 -13 4 -10 9 4 5 3 11 -1 14 -5 2 -2 2 5 0 8
-1 18 -3 23 -3z m596 -187 c-2 -16 -4 -5 -4 22 0 28 2 40 4 28 2 -13 2 -35 0
-50z m610 35 c-3 -8 -6 -5 -6 6 -1 11 2 17 5 13 3 -3 4 -12 1 -19z m-974 5
c-13 -2 -33 -2 -45 0 -13 2 -3 4 22 4 25 0 35 -2 23 -4z m104 -40 c-3 -10 -5
-2 -5 17 0 19 2 27 5 18 2 -10 2 -26 0 -35z m233 31 c0 -8 -4 -12 -10 -9 -5 3
-10 10 -10 16 0 5 5 9 10 9 6 0 10 -7 10 -16z m697 -46 c-2 -13 -4 -3 -4 22 0
25 2 35 4 23 2 -13 2 -33 0 -45z m-1143 44 c-7 -4 -14 -18 -17 -32 -4 -21 -4
-20 -6 8 -1 24 3 32 17 32 11 0 13 -3 6 -8z m780 -31 c0 -35 2 -39 25 -38 55
2 194 -3 190 -7 -2 -2 -55 -6 -116 -10 l-113 -7 0 50 c0 28 3 51 8 51 4 0 7
-17 6 -39z m-607 -13 c-3 -7 -5 -2 -5 12 0 14 2 19 5 13 2 -7 2 -19 0 -25z
m930 -10 c-3 -7 -5 -2 -5 12 0 14 2 19 5 13 2 -7 2 -19 0 -25z m-660 -10 c-3
-7 -5 -2 -5 12 0 14 2 19 5 13 2 -7 2 -19 0 -25z m299 -5 c-11 -11 -17 4 -9
23 7 18 8 18 11 1 2 -10 1 -21 -2 -24z m-518 -46 c12 -3 10 -5 -5 -6 -19 -1
-23 4 -22 27 1 22 2 23 6 5 2 -12 12 -24 21 -26z m222 23 c0 -5 -8 -10 -17
-10 -15 0 -16 2 -3 10 19 12 20 12 20 0z m-473 -22 c-3 -8 -6 -5 -6 6 -1 11 2
17 5 13 3 -3 4 -12 1 -19z m526 15 c-7 -2 -19 -2 -25 0 -7 3 -2 5 12 5 14 0
19 -2 13 -5z m-713 -35 c0 -5 -4 -8 -10 -8 -5 0 -10 10 -10 23 0 18 2 19 10 7
5 -8 10 -18 10 -22z m395 22 c-3 -5 -32 -9 -63 -8 l-57 1 60 7 c33 4 61 7 63
8 2 1 0 -2 -3 -8z m162 3 c-20 -2 -52 -2 -70 0 -17 2 0 4 38 4 39 0 53 -2 32
-4z m-417 -13 c0 -5 -12 -10 -27 -10 -22 0 -25 2 -13 10 20 13 40 13 40 0z
m110 0 c0 -5 -7 -10 -16 -10 -8 0 -12 5 -9 10 3 6 10 10 16 10 5 0 9 -4 9 -10z
m1690 -4 c0 -3 -4 -8 -10 -11 -5 -3 -10 -1 -10 4 0 6 5 11 10 11 6 0 10 -2 10
-4z m-2150 -16 c0 -6 -30 -9 -72 -8 -71 1 -72 1 -23 8 78 11 95 11 95 0z
m2129 -93 c1 -5 -3 -5 -9 -2 -5 3 -10 16 -9 28 0 21 1 21 9 2 5 -11 9 -24 9
-28z m66 -47 c3 -6 -1 -7 -9 -4 -18 7 -21 14 -7 14 6 0 13 -4 16 -10z m-148
-192 c-3 -7 -5 -2 -5 12 0 14 2 19 5 13 2 -7 2 -19 0 -25z"/>
<path d="M560 1169 c0 -5 5 -7 10 -4 6 3 10 8 10 11 0 2 -4 4 -10 4 -5 0 -10
-5 -10 -11z"/>
<path d="M1408 1113 c6 -2 18 -2 25 0 6 3 1 5 -13 5 -14 0 -19 -2 -12 -5z"/>
<path d="M2400 962 c0 -5 7 -9 15 -9 8 0 15 4 15 9 0 4 -7 8 -15 8 -8 0 -15
-4 -15 -8z"/>
<path d="M415 953 c-22 -2 -49 -8 -60 -13 -11 -5 -51 -11 -89 -14 -72 -5 -80
-8 -90 -43 -6 -20 -5 -21 31 -13 21 5 84 11 141 15 97 7 104 9 112 31 5 13 17
24 27 24 15 0 16 2 3 10 -8 5 -19 9 -25 8 -5 -1 -28 -3 -50 -5z"/>
<path d="M2575 768 c-4 -10 -4 -26 0 -35 8 -17 8 -17 12 0 3 9 3 25 0 35 -4
16 -4 16 -12 0z"/>
<path d="M1130 687 c0 -49 4 -66 15 -71 20 -7 25 6 28 74 2 50 0 55 -20 58
-22 3 -23 0 -23 -61z"/>
<path d="M1197 713 c1 -21 2 -50 2 -65 1 -22 6 -28 24 -28 21 0 22 3 19 65 -3
59 -6 65 -25 65 -19 0 -22 -5 -20 -37z"/>
<path d="M361 703 c-21 -86 -22 -103 -3 -103 14 0 17 7 14 40 -2 22 1 53 6 70
6 17 7 30 2 30 -5 0 -13 -17 -19 -37z"/>
<path d="M406 718 c-9 -37 -7 -118 4 -118 6 0 10 21 10 48 0 26 3 57 6 70 4
12 2 22 -4 22 -5 0 -12 -10 -16 -22z"/>
<path d="M447 727 c-12 -30 -8 -102 6 -121 12 -16 13 -9 10 45 -6 91 -7 98
-16 76z"/>
<path d="M946 698 c2 -24 3 -51 3 -60 1 -11 9 -18 21 -18 18 0 20 7 20 60 0
56 -2 60 -23 60 -21 0 -23 -4 -21 -42z"/>
<path d="M1028 729 c-26 -15 -22 -35 11 -59 16 -11 31 -30 33 -43 l3 -22 23
23 c18 18 20 26 12 42 -6 11 -17 20 -25 20 -8 0 -20 11 -27 24 -10 20 -17 23
-30 15z"/>
<path d="M1072 723 c2 -10 10 -18 18 -18 8 0 16 8 18 18 2 12 -3 17 -18 17
-15 0 -20 -5 -18 -17z"/>
<path d="M2052 656 l-2 -89 -140 5 c-77 2 -135 1 -128 -4 7 -4 71 -8 141 -8
122 0 129 -1 154 -25 15 -13 30 -22 33 -19 3 3 -6 15 -20 26 -22 18 -25 30
-31 112 l-6 91 -1 -89z"/>
<path d="M139 693 c-2 -28 -3 -31 -6 -12 -4 25 -7 26 -51 21 -80 -8 -82 -12
-82 -194 l0 -158 59 0 c44 0 60 -4 65 -16 4 -12 16 -14 48 -10 140 17 168 17
168 1 0 -15 -37 -21 -103 -17 -16 1 -36 -2 -45 -8 -13 -7 -3 -9 38 -10 30 0
89 -4 130 -10 41 -5 136 -14 210 -20 74 -6 189 -17 255 -25 66 -8 201 -24 300
-35 99 -11 204 -25 234 -30 30 -6 69 -10 87 -10 26 0 32 -4 28 -15 -4 -10 0
-15 15 -15 12 0 21 -4 21 -9 0 -4 -11 -6 -25 -3 -14 2 -25 11 -25 21 0 13 -2
13 -9 2 -5 -8 -16 -11 -30 -6 -12 4 -21 2 -21 -4 0 -6 5 -11 10 -11 6 0 15
-11 21 -24 10 -22 15 -23 38 -14 14 6 44 10 66 9 l40 -1 -30 14 c-16 8 -25 15
-20 16 57 9 162 14 159 8 -5 -8 43 -12 121 -10 34 1 37 0 15 -7 -18 -7 -20 -9
-7 -10 10 -1 16 -5 12 -10 -3 -6 3 -15 12 -21 15 -9 13 -10 -12 -9 -50 3 -65
0 -60 -14 4 -8 -8 -12 -40 -13 -34 -1 -45 2 -45 14 0 21 -6 12 -14 -21 l-6
-27 525 0 c307 0 525 4 525 9 0 5 -25 17 -55 26 -30 10 -52 22 -49 27 4 6 -6
21 -21 34 l-27 23 27 7 c23 6 25 8 11 16 -20 11 -21 28 0 28 8 0 13 4 10 9 -7
11 27 21 72 21 l32 0 0 125 0 125 -84 0 c-76 0 -85 -2 -91 -20 -8 -25 3 -80
19 -100 7 -8 14 -31 15 -52 3 -60 -66 -99 -114 -64 -19 13 -18 15 15 29 l35
15 -36 1 -36 1 -1 78 c-3 187 -10 221 -50 222 -10 0 -11 -18 -7 -77 4 -43 11
-92 16 -108 16 -52 4 -107 -16 -75 -4 6 -15 8 -26 5 -10 -4 -19 -2 -19 2 0 5
-27 7 -60 5 -45 -3 -61 -1 -64 9 -2 8 -13 44 -25 81 -11 37 -29 78 -41 90 -17
19 -16 11 10 -44 31 -66 58 -192 48 -219 -4 -11 -24 -13 -82 -11 l-76 4 0 50
c0 61 -9 60 -12 -1 -1 -44 -18 -37 -18 8 0 46 -24 103 -59 143 -35 39 -39 41
-108 45 -48 4 -83 1 -104 -7 -43 -18 -68 -77 -69 -157 l0 -63 -42 0 c-63 0
-907 78 -918 85 -6 4 -10 13 -10 21 0 19 -39 18 -47 -2 -8 -21 -23 1 -23 36 0
38 -19 98 -36 115 -9 8 -33 15 -54 15 -43 0 -70 -26 -70 -67 0 -30 -16 -30
-24 0 -9 33 -8 37 12 37 10 0 13 3 6 8 -6 4 -16 16 -23 27 -12 19 -12 19 -7
-4 l5 -23 -22 21 c-23 21 -64 20 -79 -3 -6 -8 -11 -6 -19 4 -8 11 -9 7 -4 -17
3 -17 2 -34 -3 -37 -14 -8 -23 49 -16 95 4 22 2 39 -3 39 -12 0 -16 -71 -8
-133 4 -28 11 -45 17 -41 6 4 9 1 6 -7 -3 -8 -13 -16 -22 -17 -17 -4 -18 6
-13 140 3 78 8 157 11 173 3 17 -2 5 -10 -25 -10 -34 -17 -99 -18 -168 -1
-108 -2 -113 -21 -108 -11 3 -23 6 -27 6 -5 0 -8 22 -8 49 0 28 -4 52 -9 56
-6 3 -7 -17 -4 -50 6 -55 6 -55 -18 -47 -23 9 -24 14 -27 111 -1 56 1 124 6
152 5 27 5 49 1 49 -5 0 -10 -17 -10 -37z m-9 -153 c0 -67 -4 -110 -10 -110
-6 0 -10 26 -10 58 0 61 10 162 16 162 2 0 4 -49 4 -110z m454 -79 c3 -4 -6
-6 -19 -3 -14 2 -25 6 -25 8 0 8 39 4 44 -5z m-170 -37 c9 -8 16 -25 15 -37 0
-21 -1 -21 -9 -2 -7 16 -9 13 -9 -16 -1 -32 -15 -59 -32 -59 -14 0 -30 58 -23
84 5 21 25 43 41 46 1 0 9 -7 17 -16z m180 -26 c13 -36 -15 -98 -43 -98 -23 0
-45 56 -35 86 19 52 62 58 78 12z m-137 -20 c-3 -8 -6 -5 -6 6 -1 11 2 17 5
13 3 -3 4 -12 1 -19z m1407 -46 c3 -5 -5 -7 -18 -5 -18 4 -29 -2 -42 -22 -17
-26 -17 -29 -1 -57 15 -27 16 -30 1 -24 -8 3 -18 6 -20 6 -3 0 -2 5 1 10 3 6
2 10 -2 10 -14 0 -9 54 5 63 7 5 10 12 8 16 -3 4 10 8 29 9 18 2 36 -1 39 -6z
m526 -63 c0 -5 5 -7 10 -4 6 3 10 4 10 0 0 -3 -10 -10 -22 -15 l-23 -9 22 0
c12 -1 24 -5 27 -10 8 -12 -18 -21 -64 -21 -43 0 -58 25 -30 48 13 11 13 11
-2 6 -10 -3 -18 -1 -18 5 0 6 19 11 45 11 25 0 45 -5 45 -11z m-460 -200 c0
-4 -4 -11 -10 -14 -5 -3 -10 -1 -10 5 0 7 -8 9 -19 5 -11 -3 -22 -2 -24 2 -3
5 10 9 29 9 19 0 34 -3 34 -7z m-102 -28 c10 -6 7 -10 -13 -15 -15 -4 -30 -5
-33 -1 -3 3 0 5 7 5 7 0 9 5 6 10 -8 12 15 13 33 1z"/>
<path d="M2328 233 c7 -3 16 -2 19 1 4 3 -2 6 -13 5 -11 0 -14 -3 -6 -6z"/>
<path d="M235 659 c-17 -67 -24 -223 -11 -236 3 -4 6 31 6 76 0 45 7 114 16
152 21 93 13 98 -11 8z"/>
<path d="M592 710 c0 -14 2 -19 5 -12 2 6 2 18 0 25 -3 6 -5 1 -5 -13z"/>
<path d="M757 722 c7 -4 19 -25 26 -47 16 -46 37 -58 37 -21 0 48 -17 76 -47
76 -17 0 -23 -3 -16 -8z"/>
<path d="M837 713 c-7 -23 -7 -85 -1 -95 3 -4 11 -5 19 -1 21 7 21 113 1 113
-8 0 -17 -8 -19 -17z"/>
<path d="M912 717 c-8 -9 -16 -34 -19 -57 -5 -32 -3 -40 10 -40 19 0 30 34 25
80 -3 30 -5 31 -16 17z"/>
<path d="M176 684 c-4 -20 -5 -38 -2 -41 2 -3 8 11 12 31 3 21 4 39 1 42 -2 3
-8 -11 -11 -32z"/>
<path d="M332 695 c0 -16 2 -22 5 -12 2 9 2 23 0 30 -3 6 -5 -1 -5 -18z"/>
<path d="M1810 711 c0 -7 -4 -10 -9 -6 -5 3 -13 0 -17 -6 -4 -8 -3 -9 4 -5 7
4 12 1 12 -6 0 -8 5 -6 11 5 6 10 8 21 5 24 -3 4 -6 1 -6 -6z"/>
<path d="M632 685 c0 -16 2 -22 5 -12 2 9 2 23 0 30 -3 6 -5 -1 -5 -18z"/>
<path d="M750 655 c0 -35 4 -45 16 -45 13 0 15 7 10 31 -3 17 -6 38 -6 45 0 8
-4 14 -10 14 -5 0 -10 -20 -10 -45z"/>
<path d="M1985 690 c-3 -5 -3 -32 1 -60 5 -39 10 -50 25 -50 26 0 32 15 24 70
-5 40 -11 50 -25 50 -11 0 -22 -4 -25 -10z"/>
<path d="M2197 669 c7 -7 15 -10 18 -7 3 3 -2 9 -12 12 -14 6 -15 5 -6 -5z"/>
<path d="M1014 645 c-7 -17 10 -35 33 -35 9 0 10 7 4 22 -10 28 -29 35 -37 13z"/>
<path d="M322 630 c0 -14 2 -19 5 -12 2 6 2 18 0 25 -3 6 -5 1 -5 -13z"/>
<path d="M561 634 c0 -11 3 -14 6 -6 3 7 2 16 -1 19 -3 4 -6 -2 -5 -13z"/>
<path d="M1580 634 c0 -8 5 -12 10 -9 6 3 10 10 10 16 0 5 -4 9 -10 9 -5 0
-10 -7 -10 -16z"/>
<path d="M1606 635 c-4 -11 1 -15 19 -15 16 0 25 6 25 15 0 8 -9 15 -19 15
-10 0 -21 -7 -25 -15z"/>
<path d="M1661 634 c0 -11 3 -14 6 -6 3 7 2 16 -1 19 -3 4 -6 -2 -5 -13z"/>
<path d="M1696 643 c-11 -11 -6 -23 9 -23 8 0 15 4 15 9 0 13 -16 22 -24 14z"/>
<path d="M1731 634 c0 -11 3 -14 6 -6 3 7 2 16 -1 19 -3 4 -6 -2 -5 -13z"/>
<path d="M1752 633 c2 -14 11 -17 33 -14 37 4 47 10 40 22 -10 15 -43 10 -55
-8 -11 -17 -11 -17 -6 0 3 9 1 17 -5 17 -6 0 -9 -8 -7 -17z"/>
<path d="M1833 631 c-1 -14 3 -17 18 -14 10 3 19 10 19 17 0 6 5 4 10 -4 8
-13 10 -12 10 3 0 25 -55 24 -57 -2z"/>
<path d="M2085 630 c-7 -11 4 -16 48 -23 25 -4 37 6 20 16 -21 12 -63 16 -68
7z"/>
<path d="M622 610 c0 -14 2 -19 5 -12 2 6 2 18 0 25 -3 6 -5 1 -5 -13z"/>
<path d="M2593 603 c9 -2 23 -2 30 0 6 3 -1 5 -18 5 -16 0 -22 -2 -12 -5z"/>
<path d="M164 515 c0 -49 1 -71 3 -48 2 23 2 64 0 90 -2 26 -3 8 -3 -42z"/>
<path d="M2628 587 c-16 -6 -28 -14 -28 -19 0 -12 24 -10 38 4 7 7 13 8 13 3
1 -6 2 -17 3 -25 0 -8 7 -14 15 -12 12 3 12 0 1 -12 -11 -14 -9 -16 14 -16 21
0 26 5 26 26 0 16 -4 23 -12 18 -7 -5 -8 -3 -2 7 17 29 13 38 -13 28 -31 -12
-36 -11 -28 1 3 6 5 10 3 9 -2 -1 -15 -6 -30 -12z"/>
<path d="M343 559 c1 -17 3 -18 13 -5 8 12 13 13 22 4 9 -9 12 -8 12 5 0 11
-8 17 -24 17 -19 0 -24 -5 -23 -21z"/>
<path d="M410 565 c0 -8 4 -15 10 -15 5 0 7 7 4 15 -4 8 -8 15 -10 15 -2 0 -4
-7 -4 -15z"/>
<path d="M475 570 c3 -5 13 -10 21 -10 8 0 12 5 9 10 -3 6 -13 10 -21 10 -8 0
-12 -4 -9 -10z"/>
<path d="M1443 573 c15 -2 39 -2 55 0 15 2 2 4 -28 4 -30 0 -43 -2 -27 -4z"/>
<path d="M1548 573 c6 -2 18 -2 25 0 6 3 1 5 -13 5 -14 0 -19 -2 -12 -5z"/>
<path d="M1618 573 c6 -2 18 -2 25 0 6 3 1 5 -13 5 -14 0 -19 -2 -12 -5z"/>
<path d="M1678 573 c12 -2 30 -2 40 0 9 3 -1 5 -23 4 -22 0 -30 -2 -17 -4z"/>
<path d="M2550 569 c0 -5 -4 -7 -10 -4 -5 3 -10 -1 -10 -9 0 -9 -5 -16 -11
-16 -7 0 -9 -10 -7 -25 3 -14 1 -25 -4 -25 -5 0 -6 -4 -3 -10 3 -5 10 -10 14
-10 10 0 24 39 21 60 -1 10 4 7 14 -6 13 -19 21 -21 50 -14 19 4 37 5 40 2 4
-3 6 -2 6 2 0 18 -31 36 -60 36 -24 0 -31 4 -26 15 3 8 1 15 -4 15 -6 0 -10
-5 -10 -11z"/>
<path d="M590 550 c0 -5 7 -10 15 -10 8 0 15 5 15 10 0 6 -7 10 -15 10 -8 0
-15 -4 -15 -10z"/>
<path d="M830 494 c0 -62 1 -64 25 -64 23 0 24 2 15 20 -9 17 -8 20 8 20 26 0
42 20 42 51 0 22 -15 39 -36 39 -2 0 -4 -18 -4 -40 0 -22 -4 -40 -9 -40 -6 0
-7 15 -4 34 4 28 2 34 -16 39 -20 5 -21 1 -21 -59z"/>
<path d="M1262 538 c2 -19 10 -24 46 -26 23 -2 42 -7 42 -13 0 -5 7 -9 15 -9
8 0 15 5 15 10 0 6 18 10 40 10 36 0 40 3 40 25 l0 25 -101 0 c-98 0 -100 0
-97 -22z"/>
<path d="M945 526 c-20 -31 -12 -81 15 -96 27 -15 27 -15 22 48 -5 70 -15 82
-37 48z"/>
<path d="M994 534 c3 -9 6 -39 6 -67 l0 -51 22 21 c24 25 28 73 8 97 -17 21
-44 21 -36 0z"/>
<path d="M1120 489 c5 -55 18 -78 43 -79 4 0 7 32 7 70 0 70 0 70 -28 70 l-28
0 6 -61z"/>
<path d="M1083 528 c-6 -7 -13 -34 -16 -60 -6 -42 -4 -48 12 -48 11 0 21 9 25
23 14 53 0 112 -21 85z"/>
<path d="M1660 500 c0 -13 7 -20 18 -20 26 0 34 11 21 27 -17 20 -39 16 -39
-7z"/>
<path d="M1810 500 c19 -13 30 -13 30 0 0 6 -10 10 -22 10 -19 0 -20 -2 -8
-10z"/>
<path d="M2678 486 c-8 -8 -26 -16 -39 -19 -17 -3 -14 -5 12 -6 26 -1 39 4 43
15 9 23 1 28 -16 10z"/>
<path d="M2580 486 c0 -2 7 -9 15 -16 13 -11 14 -10 9 4 -5 14 -24 23 -24 12z"/>
<path d="M1674 462 c-18 -12 -25 -42 -10 -42 8 0 16 11 18 25 3 14 5 25 4 25
0 0 -6 -4 -12 -8z"/>
<path d="M1967 432 c3 -12 9 -25 14 -28 14 -8 11 10 -6 32 -13 18 -14 18 -8
-4z"/>
<path d="M1998 444 c-4 -3 -3 -15 2 -25 6 -9 8 -24 7 -31 -2 -7 -2 -10 0 -5 3
4 11 7 19 7 8 0 14 4 14 9 0 15 -35 53 -42 45z"/>
<path d="M2521 314 c0 -11 3 -14 6 -6 3 7 2 16 -1 19 -3 4 -6 -2 -5 -13z"/>
<path d="M2120 291 c0 -22 25 -39 38 -27 8 8 -10 38 -26 44 -7 2 -12 -6 -12
-17z"/>
<path d="M69 178 c0 -13 -3 -17 -6 -10 -2 6 -18 12 -34 12 l-29 0 0 -90 0 -90
175 0 c110 0 175 4 175 10 0 6 11 10 25 10 14 0 25 -4 25 -10 0 -16 47 -12 54
5 7 19 36 19 36 0 0 -8 9 -15 20 -15 11 0 20 6 20 13 0 9 3 8 9 -2 5 -7 14
-10 20 -7 20 13 11 26 -18 26 -17 0 -33 4 -36 10 -8 12 -75 13 -75 1 0 -5 -20
-11 -45 -13 -42 -3 -60 5 -32 15 21 7 4 15 -46 21 -38 5 -47 3 -47 -10 0 -8
-5 -12 -10 -9 -6 4 -7 11 -4 17 7 11 3 10 -43 -9 -7 -3 -13 -1 -13 4 0 10 59
36 78 34 7 -1 11 2 10 6 -2 4 2 8 7 8 6 0 9 -3 8 -7 -2 -5 3 -8 11 -8 8 0 16
5 18 12 2 6 21 13 42 14 79 7 48 15 -42 12 -50 -2 -92 0 -92 4 0 4 7 14 16 22
8 9 11 16 5 16 -5 0 -13 -5 -16 -10 -5 -8 -11 -8 -19 -1 -8 7 -21 6 -40 -4
-33 -17 -60 -20 -51 -4 8 12 -23 49 -42 49 -7 0 -13 -10 -14 -22z m146 -68
c-3 -5 2 -10 12 -11 15 0 15 -2 -4 -11 -26 -13 -53 -4 -53 17 0 9 9 15 26 15
14 0 23 -4 19 -10z m111 -73 c4 -4 -5 -7 -19 -7 -15 0 -27 4 -27 10 0 11 35 8
46 -3z"/>
<path d="M146 171 c-4 -7 -5 -15 -2 -18 9 -9 19 4 14 18 -4 11 -6 11 -12 0z"/>
<path d="M1109 169 c-10 -6 -4 -9 19 -9 17 0 32 2 32 4 0 9 -39 13 -51 5z"/>
<path d="M818 143 c6 -2 18 -2 25 0 6 3 1 5 -13 5 -14 0 -19 -2 -12 -5z"/>
<path d="M1318 133 c7 -3 16 -2 19 1 4 3 -2 6 -13 5 -11 0 -14 -3 -6 -6z"/>
<path d="M445 115 c23 -8 83 -10 79 -3 -3 4 -24 8 -47 7 -23 0 -37 -2 -32 -4z"/>
<path d="M1083 113 c9 -2 23 -2 30 0 6 3 -1 5 -18 5 -16 0 -22 -2 -12 -5z"/>
<path d="M371 101 c-18 -11 -4 -17 44 -19 27 -1 35 1 25 7 -27 16 -55 21 -69
12z"/>
<path d="M1360 101 c0 -5 9 -8 20 -6 14 3 24 -3 30 -18 10 -21 10 -21 7 3 -1
19 -8 26 -29 28 -16 2 -28 -1 -28 -7z"/>
<path d="M1008 83 c7 -3 16 -2 19 1 4 3 -2 6 -13 5 -11 0 -14 -3 -6 -6z"/>
<path d="M1255 79 c-16 -5 -41 -7 -55 -4 -24 4 -24 4 -3 -7 24 -12 93 -3 93
12 0 6 -1 10 -2 9 -2 0 -16 -5 -33 -10z"/>
<path d="M1630 80 c0 -5 7 -10 15 -10 8 0 15 5 15 10 0 6 -7 10 -15 10 -8 0
-15 -4 -15 -10z"/>
<path d="M940 71 c-23 -6 -23 -8 -7 -17 21 -12 77 -6 77 8 0 6 -11 7 -26 4
-17 -5 -23 -3 -19 4 3 5 5 10 3 9 -2 -1 -14 -4 -28 -8z"/>
<path d="M1048 73 c-14 -4 -15 -8 -5 -24 6 -10 20 -19 29 -19 31 0 19 -19 -14
-23 -18 -2 0 -5 40 -5 50 -2 72 2 72 10 0 9 3 9 12 0 15 -15 32 -16 23 -2 -3
6 -1 10 4 10 6 0 11 -4 11 -10 0 -5 9 -10 20 -10 22 0 27 15 8 24 -7 3 -1 4
14 2 15 -1 25 1 22 5 -7 12 7 11 26 -1 8 -5 17 -6 20 -2 3 5 19 5 35 1 19 -4
23 -7 10 -8 -17 -1 -18 -3 -5 -11 21 -13 60 -12 60 1 0 8 13 9 43 4 71 -12
127 -14 127 -4 0 5 -7 9 -15 9 -8 0 -15 5 -15 10 0 6 -11 10 -24 10 -15 0 -26
7 -29 18 -4 16 -5 16 -6 0 -1 -11 -10 -18 -23 -19 -13 0 -31 -2 -40 -4 -10 -2
-18 0 -18 3 0 4 -21 8 -48 9 -26 2 -62 5 -80 8 -21 4 -32 3 -28 -3 10 -17 -75
-27 -86 -11 -7 11 -11 11 -15 2 -2 -7 -16 -13 -29 -13 -13 0 -24 -4 -24 -10 0
-5 -5 -10 -12 -10 -6 0 -4 8 6 19 10 11 13 22 8 25 -6 3 -12 2 -14 -4 -1 -5
-13 -7 -25 -4 -13 4 -20 11 -16 20 3 8 4 13 2 13 -2 -1 -12 -3 -21 -6z"/>
<path d="M1130 69 c0 -5 5 -7 10 -4 6 3 10 8 10 11 0 2 -4 4 -10 4 -5 0 -10
-5 -10 -11z"/>
<path d="M1602 55 c0 -16 2 -22 5 -12 2 9 2 23 0 30 -3 6 -5 -1 -5 -18z"/>
<path d="M578 63 c7 -3 16 -2 19 1 4 3 -2 6 -13 5 -11 0 -14 -3 -6 -6z"/>
<path d="M375 50 c-3 -5 -1 -10 4 -10 6 0 11 5 11 10 0 6 -2 10 -4 10 -3 0 -8
-4 -11 -10z"/>
<path d="M758 53 c7 -3 16 -2 19 1 4 3 -2 6 -13 5 -11 0 -14 -3 -6 -6z"/>
<path d="M660 35 c0 -8 7 -15 15 -15 8 0 15 4 15 9 0 5 -7 11 -15 15 -9 3 -15
0 -15 -9z"/>
<path d="M745 22 c-13 -14 -2 -22 30 -22 19 0 35 4 35 9 0 10 -57 21 -65 13z"/>
<path d="M961 27 c2 -1 12 -9 22 -16 15 -12 17 -12 11 3 -3 9 -13 16 -22 16
-8 0 -13 -1 -11 -3z"/>
<path d="M1015 19 c-11 -16 -1 -19 13 -3 7 8 8 14 3 14 -5 0 -13 -5 -16 -11z"/>
<path d="M460 10 c0 -5 5 -10 10 -10 6 0 10 5 10 10 0 6 -4 10 -10 10 -5 0
-10 -4 -10 -10z"/>
<path d="M600 9 c0 -5 5 -7 10 -4 6 3 10 8 10 11 0 2 -4 4 -10 4 -5 0 -10 -5
-10 -11z"/>
<path d="M830 10 c0 -5 5 -10 10 -10 6 0 10 5 10 10 0 6 -4 10 -10 10 -5 0
-10 -4 -10 -10z"/>
<path d="M860 10 c0 -5 5 -10 10 -10 6 0 10 5 10 10 0 6 -4 10 -10 10 -5 0
-10 -4 -10 -10z"/>
<path d="M1300 8 c0 -4 12 -8 27 -8 14 0 23 3 19 7 -10 10 -46 11 -46 1z"/>
</g>
</svg>
