<?xml version="1.0" standalone="no"?>
<!DOCTYPE svg PUBLIC "-//W3C//DTD SVG 20010904//EN"
 "http://www.w3.org/TR/2001/REC-SVG-20010904/DTD/svg10.dtd">
<svg version="1.0" xmlns="http://www.w3.org/2000/svg"
 width="297.000000pt" height="169.000000pt" viewBox="0 0 297.000000 169.000000"
 preserveAspectRatio="xMidYMid meet">

<g transform="translate(0.000000,169.000000) scale(0.100000,-0.100000)"
fill="#000000" stroke="none">
<path d="M2855 1635 c-49 -12 -198 -48 -330 -80 -132 -31 -255 -60 -272 -65
-32 -8 -33 -8 -33 26 0 29 -3 34 -24 34 -13 0 -26 7 -30 15 -3 8 -9 15 -13 14
-27 -5 -43 3 -43 21 0 14 -7 20 -24 20 -35 0 -56 -10 -56 -26 0 -10 -7 -13
-24 -8 -35 9 -66 -4 -66 -27 0 -25 -23 -49 -47 -49 -17 -1 -17 -1 0 -11 14 -8
17 -25 17 -100 0 -106 13 -95 -170 -133 -69 -14 -219 -46 -335 -71 -115 -25
-213 -45 -217 -45 -5 0 -8 -13 -8 -30 0 -16 -4 -30 -10 -30 -5 0 -10 -7 -10
-15 0 -8 -3 -16 -7 -16 -5 -1 -17 -3 -28 -4 -11 -1 -51 -7 -88 -14 -38 -7 -90
-10 -115 -7 -34 4 -40 3 -22 -3 20 -7 21 -9 6 -10 -11 -1 -34 4 -53 11 -37 13
-52 6 -33 -17 10 -12 10 -15 -5 -15 -13 0 -16 7 -13 29 4 28 2 30 -42 38 -25
5 -59 6 -75 1 -119 -32 -250 -57 -256 -47 -4 7 -8 5 -12 -4 -3 -9 -37 -22 -86
-32 l-81 -18 0 -38 c0 -20 5 -39 11 -41 6 -2 8 -14 3 -32 l-7 -29 -75 7 c-41
3 -86 6 -99 6 -14 0 -23 6 -23 15 0 8 -6 15 -14 15 -8 0 -21 3 -30 6 -14 5
-16 -13 -16 -162 0 -102 4 -163 9 -155 7 11 10 10 14 -5 4 -16 5 -17 6 -1 1
24 18 21 25 -6 l6 -22 19 24 19 24 12 -24 13 -24 10 23 c11 24 27 30 27 10 0
-9 4 -8 10 2 8 13 10 12 10 -2 0 -10 3 -18 8 -18 19 0 42 43 48 90 7 50 7 51
43 51 20 -1 106 6 191 13 265 23 768 51 776 43 2 -2 -12 -34 -32 -71 -20 -37
-34 -70 -30 -73 3 -3 105 -7 228 -8 145 -2 259 -8 324 -19 233 -37 344 -64
344 -84 0 -10 -7 -12 -22 -8 -13 4 -89 20 -170 36 -176 36 -312 48 -323 31 -4
-7 -4 -15 0 -19 3 -3 10 0 15 8 7 10 10 11 10 3 0 -7 7 -13 15 -13 18 0 18 -7
3 -65 -12 -44 -13 -45 -43 -39 -16 3 -34 13 -38 20 -5 9 -28 15 -60 15 -29 1
-42 4 -29 6 20 4 32 23 14 23 -5 0 -9 7 -9 15 0 8 9 15 20 15 15 0 18 -5 13
-25 -5 -19 -2 -25 9 -25 9 0 13 5 10 10 -11 17 7 11 21 -7 12 -16 13 -15 14
15 0 35 -4 38 -67 45 -42 5 -43 4 -43 -23 0 -16 -4 -31 -9 -35 -6 -3 -9 7 -8
22 2 22 -3 29 -20 31 -20 3 -23 -1 -23 -27 0 -20 6 -31 18 -35 11 -3 8 -5 -8
-4 -52 1 -70 -2 -70 -12 0 -5 7 -10 15 -10 8 0 15 -5 15 -11 0 -5 -4 -8 -9 -4
-10 6 -26 -13 -18 -21 8 -9 37 8 37 22 0 8 9 14 20 14 15 0 20 -7 21 -27 1
-18 3 -21 6 -10 2 9 9 15 14 12 5 -3 6 1 3 9 -3 9 -1 16 5 16 6 0 11 -9 11
-20 0 -11 4 -20 9 -20 5 0 8 8 7 17 0 10 7 19 17 21 13 3 17 -3 17 -28 0 -30
-1 -31 -40 -25 -35 5 -39 4 -34 -12 5 -17 5 -17 -6 -1 -6 10 -15 18 -20 18 -5
0 -7 -8 -3 -18 5 -14 3 -14 -9 2 -13 16 -26 19 -77 17 -50 -2 -61 0 -61 13 0
20 56 22 63 4 3 -7 6 -3 6 10 1 21 -2 22 -34 16 -35 -6 -35 -6 -36 30 -1 20
-2 41 -3 48 -1 17 52 27 187 32 115 4 171 15 91 17 -246 7 -320 6 -333 -4 -16
-13 -81 -145 -81 -163 0 -7 -6 -14 -14 -17 -8 -3 -17 -20 -21 -38 l-7 -32 -18
24 c-15 19 -16 27 -7 38 8 10 8 12 1 8 -13 -7 -64 14 -64 26 0 5 -33 6 -74 2
-66 -6 -75 -5 -85 11 -7 13 -10 14 -11 5 0 -8 -2 -12 -5 -9 -3 3 -2 13 1 22 6
14 17 17 63 15 31 -2 62 0 70 5 8 5 16 4 22 -5 6 -10 9 -5 9 17 0 23 4 30 18
29 34 -3 62 -17 62 -31 0 -8 9 -14 20 -14 11 0 23 0 28 0 4 0 7 5 7 10 0 6 5
14 11 18 23 15 23 39 -2 51 -13 6 -24 18 -24 26 0 14 -18 15 -147 12 -181 -6
-219 -11 -242 -31 -10 -9 -25 -16 -35 -16 -10 0 -16 -6 -13 -12 2 -8 16 -12
33 -10 28 3 28 3 9 -18 -14 -15 -20 -17 -26 -8 -5 7 -21 14 -36 14 -15 1 -43
5 -60 9 -31 7 -34 6 -52 -36 l-20 -43 -10 27 c-6 15 -18 27 -27 27 -11 0 -14
5 -10 16 5 13 2 15 -14 11 -21 -5 -28 9 -8 15 9 3 8 12 -5 31 -17 26 -47 37
-47 18 0 -6 -8 -8 -18 -7 -9 2 -38 6 -64 10 l-47 7 5 -35 c2 -20 6 -52 8 -71
3 -19 1 -35 -3 -35 -4 0 -6 -13 -3 -30 l4 -30 -53 -1 c-30 -1 -46 -3 -37 -6
10 -2 18 -10 18 -16 0 -8 4 -7 12 1 18 18 45 14 51 -8 6 -23 4 -23 -102 -10
-78 10 -121 5 -121 -14 0 -7 47 -12 153 -14 83 -2 197 -7 252 -11 l100 -8
-105 -3 -105 -2 115 -24 c63 -13 131 -30 150 -39 41 -17 224 -65 251 -65 10 0
22 -6 26 -14 4 -7 35 -20 68 -29 l60 -16 -45 -1 -45 -2 45 -13 c32 -9 38 -13
20 -14 -45 -2 -205 21 -214 30 -6 5 -55 9 -110 10 -57 1 -90 4 -76 8 14 4 20
9 15 12 -20 11 -133 31 -147 26 -7 -3 2 -6 20 -6 37 -1 35 -21 -3 -21 -13 0
-26 -6 -28 -12 -4 -10 -7 -10 -15 0 -5 7 -24 12 -43 11 -19 -1 -43 1 -55 4
-15 5 -26 0 -42 -18 -14 -16 -17 -25 -9 -26 6 -1 21 -2 31 -3 30 -2 29 -21 -1
-33 l-28 -11 25 -1 c20 -1 22 -3 10 -11 -10 -6 462 -10 1343 -10 l1357 0 0
170 c0 185 3 176 -58 171 -36 -3 -17 16 23 23 32 6 35 10 35 41 0 28 -4 35
-20 35 -11 0 -20 4 -20 10 0 5 3 9 8 9 28 -5 32 4 32 66 0 60 -2 65 -22 66
-22 1 -22 1 2 9 l25 8 -24 1 c-20 1 -22 3 -11 16 11 14 10 14 -14 5 -25 -9
-95 -15 -138 -11 -37 3 -16 20 30 24 42 3 41 4 -15 5 -62 2 -92 22 -33 22 21
0 30 5 30 16 0 8 -4 13 -9 9 -5 -3 -12 -1 -16 4 -3 5 -13 8 -23 6 -12 -2 -18
4 -19 18 -2 19 -1 20 8 5 5 -10 18 -15 29 -13 14 3 18 0 13 -8 -5 -9 -3 -9 9
0 8 7 18 9 23 5 4 -4 5 4 1 18 -3 14 -9 43 -13 65 -6 36 -7 38 -14 15 -7 -24
-7 -24 -8 -2 -1 12 9 32 21 44 l22 22 13 -30 c6 -16 12 -37 13 -46 0 -13 8
-18 29 -18 30 0 30 0 30 61 l-1 61 -41 -5 c-23 -3 -43 -11 -45 -16 -2 -6 -12
-11 -23 -11 -12 0 -16 5 -13 15 4 10 -4 20 -27 30 -19 8 -29 15 -24 16 6 0 17
2 25 3 8 2 29 4 45 5 26 2 28 3 10 11 -18 8 -17 9 7 9 35 1 59 11 52 22 -3 5
-2 9 3 10 52 5 90 30 77 50 -3 5 0 9 5 9 8 0 11 97 11 305 0 238 -3 305 -12
304 -7 0 -53 -11 -103 -24z m-832 -432 c-7 -2 -19 -2 -25 0 -7 3 -2 5 12 5 14
0 19 -2 13 -5z m-70 -10 c-7 -2 -19 -2 -25 0 -7 3 -2 5 12 5 14 0 19 -2 13 -5z
m-56 -9 c-3 -3 -12 -4 -19 -1 -8 3 -5 6 6 6 11 1 17 -2 13 -5z m-292 -24 c-4
-6 8 -10 27 -11 33 -1 33 -1 -7 -10 -22 -4 -51 -8 -65 -8 l-25 1 28 10 c15 5
27 14 27 19 0 5 5 9 11 9 5 0 7 -4 4 -10z m125 0 c-8 -5 -26 -9 -40 -9 -23 1
-23 2 5 9 43 11 52 11 35 0z m57 4 c-3 -3 -12 -4 -19 -1 -8 3 -5 6 6 6 11 1
17 -2 13 -5z m1053 -4 c0 -5 -12 -10 -26 -10 -14 0 -23 4 -19 10 3 6 15 10 26
10 10 0 19 -4 19 -10z m-432 -32 c7 -7 31 -21 55 -33 47 -22 68 -57 92 -149
11 -43 12 -62 4 -78 -8 -15 -8 -18 0 -14 6 4 19 2 28 -3 10 -6 14 -11 9 -11
-5 0 -3 -7 4 -15 7 -8 17 -12 24 -8 8 5 8 3 -1 -8 -9 -11 -6 -30 12 -84 25
-76 42 -155 26 -120 -11 24 -13 9 -5 -34 4 -17 12 -31 19 -31 17 0 43 -92 48
-173 4 -56 2 -67 -9 -63 -10 4 -14 -2 -14 -20 0 -16 4 -23 12 -18 7 4 8 3 4
-4 -13 -22 -26 -12 -26 18 0 27 -3 30 -34 30 -28 0 -35 5 -40 24 -8 31 -108
157 -170 214 -41 38 -43 42 -22 42 20 0 22 4 18 26 -3 19 -1 25 7 20 6 -4 11
-17 11 -29 0 -14 10 -26 25 -34 14 -6 22 -7 19 -1 -4 6 8 7 30 3 25 -5 36 -4
36 4 0 7 -4 9 -10 6 -5 -3 -10 3 -10 13 0 11 -15 43 -32 71 -29 44 -37 51 -66
51 -20 0 -31 4 -27 10 3 6 2 10 -4 10 -6 0 -7 8 -4 17 5 12 2 15 -9 10 -10 -3
-19 1 -22 10 -7 18 -6 20 14 23 44 6 61 0 60 -22 -3 -36 -1 -48 10 -48 7 0 8
23 5 61 -4 51 -3 59 9 50 9 -7 21 -8 37 -2 25 9 17 16 -26 23 -15 2 -21 13
-26 45 -5 38 -19 72 -19 46 0 -6 -19 -6 -54 1 -49 10 -85 26 -59 26 6 0 9 9 6
20 -3 11 -9 17 -14 14 -5 -3 -6 3 -2 12 5 13 10 10 24 -17 l18 -34 1 30 c1 26
3 27 10 10 5 -11 11 -29 14 -39 4 -10 9 -17 11 -14 3 3 -1 24 -9 46 -17 46 -7
58 12 15 8 -20 10 -22 9 -8 -1 11 2 26 7 34 8 12 -3 13 -64 7 -65 -7 -72 -6
-66 9 3 9 6 21 6 25 0 5 23 12 50 16 41 5 48 9 39 20 -14 17 2 19 19 2z m485
-5 c-7 -2 -21 -2 -30 0 -10 3 -4 5 12 5 17 0 24 -2 18 -5z m-76 -37 c-5 -16
-27 -19 -27 -3 0 7 7 14 15 14 9 0 14 -5 12 -11z m-993 -92 c10 -26 7 -144 -4
-144 -5 0 -11 8 -11 18 -1 16 -2 16 -6 0 -2 -10 -13 -18 -23 -18 -10 0 -21 8
-25 18 -6 16 -7 16 -20 -1 -13 -18 -14 -18 -25 0 -10 16 -11 16 -6 1 4 -13 0
-18 -14 -18 -12 0 -21 10 -25 30 -4 16 -11 32 -16 35 -5 4 -9 21 -9 40 0 31 3
35 33 39 109 18 144 18 151 0z m-204 -45 c0 -16 -4 -29 -9 -29 -6 0 -7 -16 -4
-35 5 -31 3 -36 -21 -45 -37 -14 -76 -13 -77 3 0 10 -2 10 -6 0 -7 -18 -21
-16 -27 5 -4 13 -18 18 -50 19 -42 2 -45 0 -48 -25 -3 -25 -7 -27 -54 -30
l-51 -3 5 31 c2 16 8 30 14 30 5 0 8 6 7 13 -1 6 3 24 9 39 12 29 20 31 157
48 50 5 101 11 115 13 35 4 40 0 40 -34z m617 25 c20 -5 22 -12 19 -48 -2 -22
-4 -44 -5 -47 -1 -3 -14 -4 -31 -1 -18 3 -30 0 -30 -7 0 -6 -4 -11 -10 -11 -5
0 -10 7 -10 15 0 11 11 15 41 15 34 0 39 3 30 14 -6 7 -12 25 -13 40 -2 25 -5
27 -35 21 -20 -4 -33 -2 -33 5 0 11 42 13 77 4z m-253 -46 c7 -5 4 -8 -6 -8
-12 0 -18 7 -17 23 0 15 2 17 6 7 3 -8 11 -18 17 -22z m-709 -3 c-3 -8 -8 -23
-11 -32 -4 -10 -7 -34 -8 -53 -1 -35 -1 -35 -53 -38 -47 -3 -53 -1 -53 16 0
11 -7 23 -16 26 -13 5 -15 1 -12 -18 6 -28 -11 -36 -80 -36 l-43 0 2 38 c3 86
6 92 55 92 39 0 44 -3 45 -22 l0 -23 9 23 c11 27 18 30 95 40 67 9 76 8 70
-13z m1405 3 c-19 -5 -39 -16 -43 -24 -12 -20 -27 -17 -27 5 0 15 8 21 33 24
58 7 73 5 37 -5z m-1728 -39 c-1 -8 4 -6 13 5 19 25 29 14 20 -21 -5 -15 -7
-36 -6 -45 1 -10 -3 -18 -8 -18 -6 0 -11 7 -11 15 0 8 -4 15 -10 15 -5 0 -10
-9 -10 -20 0 -23 -4 -24 -31 -10 -13 7 -19 7 -19 0 0 -5 6 -10 14 -10 8 0 18
-4 21 -10 4 -6 -5 -10 -21 -10 -24 0 -26 3 -22 30 7 45 -10 47 -18 3 -6 -31
-8 -34 -15 -18 -4 11 -8 36 -8 56 -1 36 0 37 47 47 55 11 68 9 64 -9z m895
-16 c-3 -10 -5 -4 -5 12 0 17 2 24 5 18 2 -7 2 -21 0 -30z m846 30 c-7 -2 -21
-2 -30 0 -10 3 -4 5 12 5 17 0 24 -2 18 -5z m-1863 -47 c0 -50 -8 -64 -33 -60
-22 5 -22 4 1 -5 29 -13 28 -21 -3 -21 -22 0 -25 4 -25 39 0 22 -4 42 -9 45
-10 6 -21 -26 -21 -63 0 -16 -4 -21 -15 -17 -8 3 -15 1 -15 -4 0 -6 -9 -10
-20 -10 -16 0 -20 7 -20 34 0 28 -4 34 -20 33 -15 -1 -18 -6 -14 -24 7 -28
-11 -53 -37 -53 -15 0 -19 8 -21 35 -1 19 -2 43 -2 53 -1 13 7 17 36 18 21 0
41 3 45 7 3 4 20 7 36 7 28 0 29 -2 25 -40 -2 -22 0 -40 4 -40 5 0 8 21 8 46
0 41 2 46 20 41 11 -3 23 -1 26 4 3 5 16 9 30 9 21 0 24 -5 24 -34z m1427 -63
c-3 -10 -5 -2 -5 17 0 19 2 27 5 18 2 -10 2 -26 0 -35z m-1800 -14 c-3 -11 -1
-17 4 -13 5 3 6 -2 3 -10 -3 -9 -15 -16 -25 -16 -14 0 -18 6 -15 23 3 12 5 27
5 34 1 7 8 10 17 6 9 -3 14 -13 11 -24z m83 2 c0 -20 -6 -30 -20 -34 -25 -6
-30 1 -23 36 8 39 43 38 43 -2z m-396 2 c12 -33 31 -63 38 -63 10 0 -3 33 -16
42 -7 5 -4 8 7 8 10 0 22 -11 27 -26 11 -27 30 -24 29 4 0 14 -2 14 -8 -2 -7
-19 -8 -19 -13 2 -5 18 -2 22 16 22 19 0 22 -4 18 -30 -4 -28 -7 -30 -47 -30
-40 0 -43 -2 -49 -31 -5 -25 -9 -29 -20 -20 -13 11 -14 41 -1 74 5 12 2 17 -9
17 -17 0 -20 9 -10 34 8 21 30 20 38 -1z m236 -5 c0 -21 -18 -43 -27 -34 -4 5
-3 11 4 13 7 2 9 11 6 19 -3 8 0 14 6 14 6 0 11 -6 11 -12z m2420 -10 c0 -9
-16 -13 -44 -13 -51 0 -48 12 4 18 19 2 36 5 38 5 1 1 2 -4 2 -10z m-133 -14
c-3 -3 -12 -4 -19 -1 -8 3 -5 6 6 6 11 1 17 -2 13 -5z m130 -20 c2 -6 -8 -10
-22 -10 -26 0 -34 11 -12 19 16 7 30 3 34 -9z m-2710 -44 c-1 -12 -5 -16 -10
-11 -5 5 -6 14 -3 20 11 16 15 13 13 -9z m1258 -2 c6 -4 2 -8 -7 -8 -10 0 -18
7 -18 17 0 9 3 12 8 7 4 -5 12 -12 17 -16z m110 12 c-9 -14 8 -12 24 3 11 10
13 5 8 -25 -5 -31 -2 -40 16 -53 29 -20 13 -31 -17 -11 -33 21 -47 20 -39 -1
5 -14 0 -12 -20 6 -27 24 -39 17 -14 -8 10 -11 8 -11 -11 -2 -13 7 -20 17 -16
23 5 8 1 9 -10 5 -10 -4 -22 -7 -28 -7 -6 0 -8 -7 -4 -15 3 -9 0 -15 -10 -15
-11 0 -14 6 -10 16 3 9 6 20 6 25 0 5 8 9 19 9 10 0 26 10 35 23 9 12 14 16
10 8 -5 -11 -2 -13 14 -9 16 5 19 2 14 -11 -5 -14 -4 -14 11 -2 11 8 15 21 12
32 -4 11 -2 19 5 19 6 0 8 -4 5 -10z m1052 -92 c-3 -8 -6 -5 -6 6 -1 11 2 17
5 13 3 -3 4 -12 1 -19z m20 -10 c-3 -7 -5 -2 -5 12 0 14 2 19 5 13 2 -7 2 -19
0 -25z m-2357 2 c0 -5 -4 -10 -10 -10 -5 0 -10 5 -10 10 0 6 5 10 10 10 6 0
10 -4 10 -10z m220 -81 c0 -14 -17 -10 -23 5 -4 10 -1 13 9 9 7 -3 14 -9 14
-14z m337 5 c-3 -3 -12 -4 -19 -1 -8 3 -5 6 6 6 11 1 17 -2 13 -5z m663 -29
c0 -8 -2 -15 -4 -15 -2 0 -6 7 -10 15 -3 8 -1 15 4 15 6 0 10 -7 10 -15z
m-481 -21 c-9 -8 -35 -16 -60 -19 -24 -2 -36 -1 -26 2 9 2 17 9 17 14 0 5 13
9 29 9 17 0 33 5 36 11 4 6 10 8 13 4 3 -3 -1 -12 -9 -21z m-179 6 c18 -12 2
-12 -25 0 -13 6 -15 9 -5 9 8 0 22 -4 30 -9z m1742 -43 c15 -11 25 -23 23 -27
-2 -4 7 -12 21 -19 14 -6 23 -15 20 -19 -2 -4 5 -9 16 -9 12 -1 28 -9 37 -18
14 -13 13 -15 -4 -16 -68 -4 -148 1 -159 10 -7 6 -16 8 -19 4 -6 -6 -9 4 -6
23 0 4 -5 11 -13 15 -9 6 -9 9 -1 9 7 0 17 18 23 40 12 43 12 43 62 7z m353 3
c20 -38 20 -38 -12 -37 -16 0 -22 2 -15 4 20 7 14 31 -10 39 -22 7 -22 7 -3
15 11 4 21 8 22 8 1 1 9 -12 18 -29z m83 13 c-10 -2 -26 -2 -35 0 -10 3 -2 5
17 5 19 0 27 -2 18 -5z m-2268 -15 c0 -2 -7 -23 -14 -48 -14 -42 -20 -38 -19
15 1 32 2 35 18 35 8 0 15 -1 15 -2z m70 -17 c0 -5 -7 -12 -16 -15 -14 -5 -15
-4 -4 9 14 17 20 19 20 6z m805 -1 c3 -5 1 -10 -4 -10 -6 0 -11 -10 -11 -22 0
-27 -5 -21 -14 15 -5 20 -3 27 8 27 8 0 18 -4 21 -10z m-755 -31 c0 -6 -4 -7
-10 -4 -5 3 -10 11 -10 16 0 6 5 7 10 4 6 -3 10 -11 10 -16z m838 -6 c2 -9
-10 -13 -42 -13 -35 0 -46 4 -46 16 0 12 9 14 42 12 23 -2 43 -9 46 -15z
m1262 -13 c0 -5 -4 -10 -9 -10 -6 0 -13 5 -16 10 -3 6 1 10 9 10 9 0 16 -4 16
-10z m-2513 -6 c-3 -3 -12 -4 -19 -1 -8 3 -5 6 6 6 11 1 17 -2 13 -5z m510
-26 c-3 -7 -5 -2 -5 12 0 14 2 19 5 13 2 -7 2 -19 0 -25z m448 22 c3 -5 1 -10
-4 -10 -6 0 -11 5 -11 10 0 6 2 10 4 10 3 0 8 -4 11 -10z m165 -10 c0 -5 -4
-10 -10 -10 -5 0 -10 5 -10 10 0 6 5 10 10 10 6 0 10 -4 10 -10z m-930 -15 c0
-8 -4 -15 -10 -15 -5 0 -10 7 -10 15 0 8 5 15 10 15 6 0 10 -7 10 -15z m160
-10 c0 -8 -4 -15 -10 -15 -5 0 -10 7 -10 15 0 8 5 15 10 15 6 0 10 -7 10 -15z
m1011 -38 c-13 -13 -15 1 -4 30 7 17 8 17 11 -1 2 -10 -1 -23 -7 -29z m1226
37 c-3 -3 -12 -4 -19 -1 -8 3 -5 6 6 6 11 1 17 -2 13 -5z m-1039 -45 c-3 -8
-7 -3 -11 10 -4 17 -3 21 5 13 5 -5 8 -16 6 -23z m640 25 c17 -4 34 -14 37
-23 4 -13 14 -17 38 -14 29 2 30 2 7 -6 -24 -9 -24 -9 8 -10 25 -1 32 3 32 18
0 11 5 23 11 27 8 5 10 -1 7 -19 -5 -27 6 -37 43 -37 25 0 25 -26 0 -40 -24
-12 -320 -13 -339 -1 -13 7 -16 82 -5 104 5 9 118 9 161 1z m-576 -49 c3 -14
1 -25 -3 -25 -5 0 -9 4 -9 9 0 5 -10 7 -21 4 -21 -6 -21 -7 -4 -19 16 -12 15
-13 -13 -11 -40 3 -40 12 -2 29 17 7 30 19 30 25 0 23 18 13 22 -12z m-1302 5
c0 -5 -4 -10 -10 -10 -5 0 -10 5 -10 10 0 6 5 10 10 10 6 0 10 -4 10 -10z
m1201 0 c15 -9 17 -13 7 -24 -16 -18 -29 -10 -21 11 4 11 3 14 -5 9 -7 -4 -12
-2 -12 3 0 14 6 14 31 1z m-658 -7 c-7 -2 -19 -2 -25 0 -7 3 -2 5 12 5 14 0
19 -2 13 -5z m-735 -160 c-10 -2 -26 -2 -35 0 -10 3 -2 5 17 5 19 0 27 -2 18
-5z"/>
<path d="M2344 1079 c12 -8 25 -8 40 -1 18 9 16 11 -19 11 -33 0 -37 -1 -21
-10z"/>
<path d="M2435 1018 c4 -13 11 -27 16 -33 5 -5 4 5 -2 23 -12 36 -24 44 -14
10z"/>
<path d="M2545 890 c-3 -5 -1 -10 4 -10 6 0 11 5 11 10 0 6 -2 10 -4 10 -3 0
-8 -4 -11 -10z"/>
<path d="M2563 797 c3 -9 12 -35 18 -59 11 -35 14 -39 17 -19 2 13 -1 28 -7
34 -6 6 -11 19 -11 28 0 10 -5 21 -12 25 -7 5 -9 2 -5 -9z"/>
<path d="M2601 680 c-8 -24 -7 -30 4 -30 10 0 13 -11 10 -40 -3 -22 -1 -40 4
-40 4 0 6 21 4 48 -2 26 -4 57 -4 70 -1 29 -5 28 -18 -8z"/>
<path d="M2605 450 c11 -5 29 -9 40 -9 l20 0 -20 9 c-11 5 -29 9 -40 9 l-20 0
20 -9z"/>
<path d="M2575 417 c18 -28 27 -32 91 -42 40 -6 42 -5 40 19 -1 27 -5 29 -100
42 l-48 7 17 -26z"/>
<path d="M2622 345 c9 -21 18 -25 52 -25 27 0 36 3 27 9 -11 7 -11 10 0 17 16
9 -17 21 -63 23 -26 1 -27 -1 -16 -24z"/>
<path d="M1522 860 c0 -14 2 -19 5 -12 2 6 2 18 0 25 -3 6 -5 1 -5 -13z"/>
<path d="M1101 834 c0 -11 3 -14 6 -6 3 7 2 16 -1 19 -3 4 -6 -2 -5 -13z"/>
<path d="M1528 383 c6 -2 18 -2 25 0 6 3 1 5 -13 5 -14 0 -19 -2 -12 -5z"/>
<path d="M2918 952 c-26 -5 -9 -32 21 -32 14 0 21 4 15 8 -6 4 -13 12 -15 17
-2 6 -12 9 -21 7z"/>
<path d="M868 710 c-59 -3 -110 -9 -114 -13 -4 -4 1 -7 12 -8 45 -3 54 -4 54
-11 0 -5 0 -12 0 -18 0 -5 -9 -10 -20 -10 -11 0 -20 -4 -20 -10 0 -21 53 -9
130 30 70 35 98 54 73 48 -5 0 -56 -4 -115 -8z"/>
<path d="M615 688 c-14 -5 -7 -7 23 -5 23 1 42 0 42 -3 -1 -15 -21 -34 -41
-37 -49 -7 -28 -13 49 -13 48 0 82 4 82 10 0 6 -8 10 -19 10 -14 0 -17 6 -13
26 4 25 4 25 -50 23 -29 -1 -63 -6 -73 -11z m105 -22 c0 -7 -7 -13 -15 -13 -8
0 -15 8 -15 18 0 12 5 16 15 13 8 -4 15 -12 15 -18z"/>
<path d="M363 668 c-6 -7 -14 -30 -18 -50 -7 -34 -5 -38 14 -38 15 0 21 6 21
23 0 13 5 28 10 33 7 7 6 16 -3 28 -11 15 -15 15 -24 4z"/>
<path d="M266 653 c-6 -14 -5 -15 5 -6 7 7 10 15 7 18 -3 3 -9 -2 -12 -12z"/>
<path d="M847 624 c-3 -3 -61 -6 -129 -5 -85 1 -118 -2 -108 -9 9 -6 40 -7 74
-4 37 5 60 3 65 -4 3 -6 61 -13 131 -17 69 -4 121 -3 117 1 -25 25 -135 53
-150 38z m-60 -20 c-3 -3 -12 -4 -19 -1 -8 3 -5 6 6 6 11 1 17 -2 13 -5z"/>
<path d="M1270 505 c-11 -13 -15 -13 -21 -3 -14 22 -26 -5 -18 -42 5 -28 7
-30 8 -10 2 23 3 24 11 5 7 -17 9 -17 9 -2 1 9 5 17 11 17 5 0 7 -7 4 -15 -4
-8 -1 -15 5 -15 6 0 11 17 11 40 0 45 -2 47 -20 25z"/>
<path d="M1307 513 c-13 -12 -7 -53 7 -53 20 0 39 27 32 45 -6 15 -28 20 -39
8z m20 -25 c-3 -8 -6 -5 -6 6 -1 11 2 17 5 13 3 -3 4 -12 1 -19z"/>
<path d="M1540 480 c0 -16 0 -33 -1 -37 0 -4 5 -9 11 -11 8 -3 10 4 6 19 -4
19 -3 18 6 -3 16 -37 26 -35 34 7 7 40 7 45 -3 44 -5 -1 -7 -6 -5 -12 1 -7 -4
-4 -11 6 -21 26 -37 21 -37 -13z"/>
<path d="M957 463 c-4 -3 -7 -13 -7 -22 1 -13 3 -13 11 2 11 19 8 33 -4 20z"/>
<path d="M1350 405 c0 -8 5 -15 10 -15 6 0 10 7 10 15 0 8 -4 15 -10 15 -5 0
-10 -7 -10 -15z"/>
<path d="M770 110 c-12 -8 -11 -10 8 -10 12 0 22 5 22 10 0 13 -11 13 -30 0z"/>
<path d="M688 103 c6 -2 18 -2 25 0 6 3 1 5 -13 5 -14 0 -19 -2 -12 -5z"/>
</g>
</svg>
